<?xml version="1.0" encoding="UTF-8" standalone="no"?>
<!DOCTYPE svg PUBLIC "-//W3C//DTD SVG 1.1//EN"
 "http://www.w3.org/Graphics/SVG/1.1/DTD/svg11.dtd">
<!-- Generated by graphviz version 7.1.0 (20230121.1956)
 -->
<!-- Pages: 1 -->
<svg width="678pt" height="266pt"
 viewBox="0.00 0.00 677.57 265.52" xmlns="http://www.w3.org/2000/svg" xmlns:xlink="http://www.w3.org/1999/xlink">
<g id="graph0" class="graph" transform="scale(1 1) rotate(0) translate(4 261.52)">
<polygon fill="white" stroke="none" points="-4,4 -4,-261.52 673.57,-261.52 673.57,4 -4,4"/>
<!-- x -->
<g id="node1" class="node">
<title>x</title>
<polygon fill="lightgray" stroke="black" points="178.57,-191.31 158.57,-191.31 158.57,-173.31 178.57,-173.31 178.57,-191.31"/>
<text text-anchor="middle" x="168.57" y="-180.11" font-family="Times New Roman,serif" font-size="9.00">x</text>
</g>
<!-- control -->
<g id="node21" class="node">
<title>control</title>
<ellipse fill="lightblue" stroke="black" cx="132.57" cy="-95.4" rx="29.9" ry="29.9"/>
<text text-anchor="middle" x="132.57" y="-93.2" font-family="Times New Roman,serif" font-size="9.00">control</text>
</g>
<!-- x&#45;&gt;control -->
<g id="edge17" class="edge">
<title>x&#45;&gt;control</title>
<path fill="none" stroke="red" stroke-width="0.14" d="M164.99,-172.86C160.98,-163.41 154.23,-147.47 147.92,-132.59"/>
<polygon fill="red" stroke="red" stroke-width="0.14" points="151.28,-131.56 144.15,-123.72 144.84,-134.29 151.28,-131.56"/>
</g>
<!-- dx -->
<g id="node2" class="node">
<title>dx</title>
<polygon fill="lightgray" stroke="black" points="282.07,-191.31 257.07,-191.31 257.07,-173.31 282.07,-173.31 282.07,-191.31"/>
<text text-anchor="middle" x="269.57" y="-180.11" font-family="Times New Roman,serif" font-size="9.00">dx</text>
</g>
<!-- dx&#45;&gt;control -->
<g id="edge19" class="edge">
<title>dx&#45;&gt;control</title>
<path fill="none" stroke="green" stroke-width="0.18" d="M256.61,-174.48C237.58,-164.33 201.15,-144.37 171.57,-125.1 169.2,-123.55 166.77,-121.91 164.34,-120.23"/>
<polygon fill="green" stroke="green" stroke-width="0.18" points="166.59,-117.53 156.41,-114.59 162.54,-123.24 166.59,-117.53"/>
</g>
<!-- 1 -->
<g id="node22" class="node">
<title>1</title>
<ellipse fill="lightblue" stroke="black" cx="284.57" cy="-14.85" rx="14.7" ry="14.7"/>
<text text-anchor="middle" x="284.57" y="-12.65" font-family="Times New Roman,serif" font-size="9.00">1</text>
</g>
<!-- dx&#45;&gt;1 -->
<g id="edge15" class="edge">
<title>dx&#45;&gt;1</title>
<path fill="none" stroke="red" stroke-width="0.13" d="M270.34,-172.88C272.54,-148.54 278.98,-77.54 282.39,-39.91"/>
<polygon fill="red" stroke="red" stroke-width="0.13" points="285.87,-40.28 283.29,-30.01 278.9,-39.65 285.87,-40.28"/>
</g>
<!-- 47 -->
<g id="node24" class="node">
<title>47</title>
<ellipse fill="white" stroke="black" cx="454.57" cy="-95.4" rx="18.27" ry="18.27"/>
<text text-anchor="middle" x="454.57" y="-93.2" font-family="Times New Roman,serif" font-size="9.00">47</text>
</g>
<!-- dx&#45;&gt;47 -->
<g id="edge22" class="edge">
<title>dx&#45;&gt;47</title>
<path fill="none" stroke="green" stroke-width="0.45" d="M277.14,-173.06C281.14,-169.05 286.3,-164.4 291.57,-161.1 335.55,-133.49 393.27,-113.95 426.91,-103.98"/>
<polygon fill="green" stroke="green" stroke-width="0.45" points="427.65,-107.41 436.29,-101.27 425.71,-100.69 427.65,-107.41"/>
</g>
<!-- theta -->
<g id="node3" class="node">
<title>theta</title>
<polygon fill="lightgray" stroke="black" points="526.07,-104.4 491.07,-104.4 491.07,-86.4 526.07,-86.4 526.07,-104.4"/>
<text text-anchor="middle" x="508.57" y="-93.2" font-family="Times New Roman,serif" font-size="9.00">theta</text>
</g>
<!-- theta&#45;&gt;1 -->
<g id="edge5" class="edge">
<title>theta&#45;&gt;1</title>
<path fill="none" stroke="green" stroke-width="0.19" d="M502.87,-86.12C497.96,-79.62 490.3,-70.83 481.57,-65.7 425.83,-32.9 348.89,-21.51 309.7,-17.69"/>
<polygon fill="green" stroke="green" stroke-width="0.19" points="310.04,-14.21 299.77,-16.81 309.42,-21.18 310.04,-14.21"/>
</g>
<!-- dtheta -->
<g id="node4" class="node">
<title>dtheta</title>
<polygon fill="lightgray" stroke="black" points="627.07,-191.31 588.07,-191.31 588.07,-173.31 627.07,-173.31 627.07,-191.31"/>
<text text-anchor="middle" x="607.57" y="-180.11" font-family="Times New Roman,serif" font-size="9.00">dtheta</text>
</g>
<!-- dtheta&#45;&gt;47 -->
<g id="edge10" class="edge">
<title>dtheta&#45;&gt;47</title>
<path fill="none" stroke="red" stroke-width="0.1" d="M594.6,-172.94C588.37,-169.09 580.72,-164.61 573.57,-161.1 534.53,-141.92 518.78,-149.19 482.57,-125.1 479.21,-122.86 475.94,-120.17 472.88,-117.33"/>
<polygon fill="red" stroke="red" stroke-width="0.1" points="475.45,-114.95 465.93,-110.31 470.48,-119.88 475.45,-114.95"/>
</g>
<!-- &#45;5 -->
<g id="node5" class="node">
<title>&#45;5</title>
<polygon fill="lightgray" stroke="black" points="669.57,-191.31 645.57,-191.31 645.57,-173.31 669.57,-173.31 669.57,-191.31"/>
<text text-anchor="middle" x="657.57" y="-180.11" font-family="Times New Roman,serif" font-size="9.00">&#45;5</text>
</g>
<!-- &#45;5&#45;&gt;47 -->
<g id="edge25" class="edge">
<title>&#45;5&#45;&gt;47</title>
<path fill="none" stroke="green" stroke-width="0.11" d="M650.98,-173.12C647.18,-168.93 642.08,-164.09 636.57,-161.1 574.82,-127.52 543.79,-159.63 482.57,-125.1 478.89,-123.02 475.38,-120.31 472.16,-117.39"/>
<polygon fill="green" stroke="green" stroke-width="0.11" points="474.89,-115.17 465.38,-110.5 469.9,-120.08 474.89,-115.17"/>
</g>
<!-- &#45;6 -->
<g id="node6" class="node">
<title>&#45;6</title>
<polygon fill="lightgray" stroke="black" points="46.57,-104.4 22.57,-104.4 22.57,-86.4 46.57,-86.4 46.57,-104.4"/>
<text text-anchor="middle" x="34.57" y="-93.2" font-family="Times New Roman,serif" font-size="9.00">&#45;6</text>
</g>
<!-- &#45;6&#45;&gt;1 -->
<g id="edge24" class="edge">
<title>&#45;6&#45;&gt;1</title>
<path fill="none" stroke="green" stroke-width="0.24" d="M39.96,-86.05C44.63,-79.51 51.97,-70.7 60.57,-65.7 125.36,-28.01 215.89,-18.8 259.34,-16.56"/>
<polygon fill="green" stroke="green" stroke-width="0.24" points="259.37,-20.06 269.21,-16.13 259.06,-13.07 259.37,-20.06"/>
</g>
<!-- &#45;7 -->
<g id="node7" class="node">
<title>&#45;7</title>
<polygon fill="lightgray" stroke="black" points="499.57,-257.52 475.57,-257.52 475.57,-239.52 499.57,-239.52 499.57,-257.52"/>
<text text-anchor="middle" x="487.57" y="-246.32" font-family="Times New Roman,serif" font-size="9.00">&#45;7</text>
</g>
<!-- 469 -->
<g id="node23" class="node">
<title>469</title>
<ellipse fill="white" stroke="black" cx="415.57" cy="-182.31" rx="21.43" ry="21.43"/>
<text text-anchor="middle" x="415.57" y="-180.11" font-family="Times New Roman,serif" font-size="9.00">469</text>
</g>
<!-- &#45;7&#45;&gt;469 -->
<g id="edge26" class="edge">
<title>&#45;7&#45;&gt;469</title>
<path fill="none" stroke="green" stroke-width="0.42" d="M478.16,-239.13C468.31,-230.34 452.46,-216.21 439.18,-204.36"/>
<polygon fill="green" stroke="green" stroke-width="0.42" points="441.58,-201.82 431.79,-197.77 436.92,-207.04 441.58,-201.82"/>
</g>
<!-- &#45;7&#45;&gt;47 -->
<g id="edge3" class="edge">
<title>&#45;7&#45;&gt;47</title>
<path fill="none" stroke="green" stroke-width="0.18" stroke-dasharray="1,5" d="M499.96,-241.44C512.83,-234.34 532.24,-221.28 540.57,-203.52 548.59,-186.45 549.74,-177.57 540.57,-161.1 525.82,-134.58 506.23,-144.09 482.57,-125.1 479.43,-122.57 476.27,-119.71 473.27,-116.81"/>
<polygon fill="green" stroke="green" stroke-width="0.18" points="475.93,-114.52 466.42,-109.85 470.94,-119.43 475.93,-114.52"/>
</g>
<!-- &#45;8 -->
<g id="node8" class="node">
<title>&#45;8</title>
<polygon fill="lightgray" stroke="black" points="140.57,-191.31 116.57,-191.31 116.57,-173.31 140.57,-173.31 140.57,-191.31"/>
<text text-anchor="middle" x="128.57" y="-180.11" font-family="Times New Roman,serif" font-size="9.00">&#45;8</text>
</g>
<!-- &#45;8&#45;&gt;control -->
<g id="edge13" class="edge">
<title>&#45;8&#45;&gt;control</title>
<path fill="none" stroke="red" stroke-width="0.17" d="M128.97,-172.86C129.39,-164.01 130.07,-149.49 130.73,-135.46"/>
<polygon fill="red" stroke="red" stroke-width="0.17" points="134.22,-135.83 131.19,-125.67 127.23,-135.5 134.22,-135.83"/>
</g>
<!-- &#45;9 -->
<g id="node9" class="node">
<title>&#45;9</title>
<polygon fill="lightgray" stroke="black" points="94.57,-191.31 70.57,-191.31 70.57,-173.31 94.57,-173.31 94.57,-191.31"/>
<text text-anchor="middle" x="82.57" y="-180.11" font-family="Times New Roman,serif" font-size="9.00">&#45;9</text>
</g>
<!-- &#45;9&#45;&gt;control -->
<g id="edge16" class="edge">
<title>&#45;9&#45;&gt;control</title>
<path fill="none" stroke="red" stroke-width="0.67" d="M87.55,-172.86C93.32,-163.06 103.19,-146.29 112.22,-130.95"/>
<polygon fill="red" stroke="red" stroke-width="0.67" points="115.12,-132.93 117.18,-122.54 109.09,-129.38 115.12,-132.93"/>
</g>
<!-- &#45;9&#45;&gt;1 -->
<g id="edge7" class="edge">
<title>&#45;9&#45;&gt;1</title>
<path fill="none" stroke="green" stroke-width="0.63" stroke-dasharray="1,5" d="M80.45,-172.81C75.76,-151.84 66.91,-97.02 93.57,-65.7 114.92,-40.62 211.88,-25.1 258.88,-18.92"/>
<polygon fill="green" stroke="green" stroke-width="0.63" points="259.25,-22.4 268.73,-17.67 258.37,-15.46 259.25,-22.4"/>
</g>
<!-- &#45;10 -->
<g id="node10" class="node">
<title>&#45;10</title>
<polygon fill="lightgray" stroke="black" points="547.07,-257.52 518.07,-257.52 518.07,-239.52 547.07,-239.52 547.07,-257.52"/>
<text text-anchor="middle" x="532.57" y="-246.32" font-family="Times New Roman,serif" font-size="9.00">&#45;10</text>
</g>
<!-- &#45;11 -->
<g id="node11" class="node">
<title>&#45;11</title>
<polygon fill="lightgray" stroke="black" points="329.07,-191.31 300.07,-191.31 300.07,-173.31 329.07,-173.31 329.07,-191.31"/>
<text text-anchor="middle" x="314.57" y="-180.11" font-family="Times New Roman,serif" font-size="9.00">&#45;11</text>
</g>
<!-- &#45;11&#45;&gt;control -->
<g id="edge14" class="edge">
<title>&#45;11&#45;&gt;control</title>
<path fill="none" stroke="red" stroke-width="0.32" d="M306.72,-172.87C302.55,-168.82 297.15,-164.19 291.57,-161.1 242.87,-134.1 221.39,-149.96 171.57,-125.1 168.96,-123.79 166.34,-122.32 163.77,-120.74"/>
<polygon fill="red" stroke="red" stroke-width="0.32" points="165.92,-117.96 155.65,-115.35 162.04,-123.79 165.92,-117.96"/>
</g>
<!-- &#45;11&#45;&gt;1 -->
<g id="edge11" class="edge">
<title>&#45;11&#45;&gt;1</title>
<path fill="none" stroke="green" stroke-width="0.12" d="M322.36,-172.98C331.43,-162.67 345.87,-144.12 351.57,-125.1 359.15,-99.81 363.42,-89.29 351.57,-65.7 342.36,-47.35 322.83,-34.05 307.23,-25.82"/>
<polygon fill="green" stroke="green" stroke-width="0.12" points="308.83,-22.71 298.31,-21.44 305.74,-29 308.83,-22.71"/>
</g>
<!-- &#45;11&#45;&gt;47 -->
<g id="edge12" class="edge">
<title>&#45;11&#45;&gt;47</title>
<path fill="none" stroke="green" stroke-width="0.36" d="M323.59,-173.01C327.96,-169.17 333.37,-164.69 338.57,-161.1 368.26,-140.6 404.98,-120.99 429.06,-108.84"/>
<polygon fill="green" stroke="green" stroke-width="0.36" points="430.36,-112.1 437.75,-104.5 427.24,-105.83 430.36,-112.1"/>
</g>
<!-- &#45;12 -->
<g id="node12" class="node">
<title>&#45;12</title>
<polygon fill="lightgray" stroke="black" points="484.07,-191.31 455.07,-191.31 455.07,-173.31 484.07,-173.31 484.07,-191.31"/>
<text text-anchor="middle" x="469.57" y="-180.11" font-family="Times New Roman,serif" font-size="9.00">&#45;12</text>
</g>
<!-- &#45;12&#45;&gt;47 -->
<g id="edge2" class="edge">
<title>&#45;12&#45;&gt;47</title>
<path fill="none" stroke="green" stroke-width="0.37" d="M468.08,-172.86C466.07,-161.46 462.39,-140.64 459.38,-123.6"/>
<polygon fill="green" stroke="green" stroke-width="0.37" points="462.89,-123.38 457.71,-114.15 456,-124.6 462.89,-123.38"/>
</g>
<!-- &#45;13 -->
<g id="node13" class="node">
<title>&#45;13</title>
<polygon fill="lightgray" stroke="black" points="594.07,-257.52 565.07,-257.52 565.07,-239.52 594.07,-239.52 594.07,-257.52"/>
<text text-anchor="middle" x="579.57" y="-246.32" font-family="Times New Roman,serif" font-size="9.00">&#45;13</text>
</g>
<!-- &#45;14 -->
<g id="node14" class="node">
<title>&#45;14</title>
<polygon fill="lightgray" stroke="black" points="641.07,-257.52 612.07,-257.52 612.07,-239.52 641.07,-239.52 641.07,-257.52"/>
<text text-anchor="middle" x="626.57" y="-246.32" font-family="Times New Roman,serif" font-size="9.00">&#45;14</text>
</g>
<!-- &#45;15 -->
<g id="node15" class="node">
<title>&#45;15</title>
<polygon fill="lightgray" stroke="black" points="531.07,-191.31 502.07,-191.31 502.07,-173.31 531.07,-173.31 531.07,-191.31"/>
<text text-anchor="middle" x="516.57" y="-180.11" font-family="Times New Roman,serif" font-size="9.00">&#45;15</text>
</g>
<!-- &#45;15&#45;&gt;47 -->
<g id="edge20" class="edge">
<title>&#45;15&#45;&gt;47</title>
<path fill="none" stroke="green" stroke-width="0.71" d="M510.4,-172.86C501.38,-160.5 484.25,-137.04 471.33,-119.35"/>
<polygon fill="green" stroke="green" stroke-width="0.71" points="474.39,-117.6 465.67,-111.59 468.74,-121.73 474.39,-117.6"/>
</g>
<!-- &#45;16 -->
<g id="node16" class="node">
<title>&#45;16</title>
<polygon fill="lightgray" stroke="black" points="209.07,-104.4 180.07,-104.4 180.07,-86.4 209.07,-86.4 209.07,-104.4"/>
<text text-anchor="middle" x="194.57" y="-93.2" font-family="Times New Roman,serif" font-size="9.00">&#45;16</text>
</g>
<!-- &#45;16&#45;&gt;1 -->
<g id="edge1" class="edge">
<title>&#45;16&#45;&gt;1</title>
<path fill="none" stroke="red" stroke-width="0.31" d="M200.83,-85.92C205.42,-79.96 211.98,-71.97 218.57,-65.7 232.69,-52.27 250.38,-39.07 263.89,-29.63"/>
<polygon fill="red" stroke="red" stroke-width="0.31" points="265.83,-32.55 272.1,-24.01 261.87,-26.77 265.83,-32.55"/>
</g>
<!-- &#45;17 -->
<g id="node17" class="node">
<title>&#45;17</title>
<polygon fill="lightgray" stroke="black" points="256.07,-104.4 227.07,-104.4 227.07,-86.4 256.07,-86.4 256.07,-104.4"/>
<text text-anchor="middle" x="241.57" y="-93.2" font-family="Times New Roman,serif" font-size="9.00">&#45;17</text>
</g>
<!-- &#45;17&#45;&gt;1 -->
<g id="edge9" class="edge">
<title>&#45;17&#45;&gt;1</title>
<path fill="none" stroke="red" stroke-width="0.42" d="M246.17,-85.99C252.45,-74.52 263.93,-53.56 272.7,-37.53"/>
<polygon fill="red" stroke="red" stroke-width="0.42" points="275.71,-39.32 277.44,-28.87 269.57,-35.96 275.71,-39.32"/>
</g>
<!-- &#45;18 -->
<g id="node18" class="node">
<title>&#45;18</title>
<polygon fill="lightgray" stroke="black" points="376.07,-191.31 347.07,-191.31 347.07,-173.31 376.07,-173.31 376.07,-191.31"/>
<text text-anchor="middle" x="361.57" y="-180.11" font-family="Times New Roman,serif" font-size="9.00">&#45;18</text>
</g>
<!-- &#45;18&#45;&gt;1 -->
<g id="edge23" class="edge">
<title>&#45;18&#45;&gt;1</title>
<path fill="none" stroke="red" stroke-width="0.11" d="M364.94,-173.06C372.53,-153.08 388.77,-101.17 368.57,-65.7 355.72,-43.13 328.19,-29.73 308.14,-22.6"/>
<polygon fill="red" stroke="red" stroke-width="0.11" points="309.47,-19.35 298.87,-19.56 307.28,-26 309.47,-19.35"/>
</g>
<!-- &#45;18&#45;&gt;47 -->
<g id="edge4" class="edge">
<title>&#45;18&#45;&gt;47</title>
<path fill="none" stroke="red" stroke-width="0.11" d="M370.83,-172.86C385.51,-159.45 414.49,-132.99 434.2,-115"/>
<polygon fill="red" stroke="red" stroke-width="0.11" points="436.36,-117.77 441.38,-108.44 431.64,-112.6 436.36,-117.77"/>
</g>
<!-- &#45;19 -->
<g id="node19" class="node">
<title>&#45;19</title>
<polygon fill="lightgray" stroke="black" points="342.07,-104.4 313.07,-104.4 313.07,-86.4 342.07,-86.4 342.07,-104.4"/>
<text text-anchor="middle" x="327.57" y="-93.2" font-family="Times New Roman,serif" font-size="9.00">&#45;19</text>
</g>
<!-- &#45;19&#45;&gt;1 -->
<g id="edge8" class="edge">
<title>&#45;19&#45;&gt;1</title>
<path fill="none" stroke="red" stroke-width="0.14" d="M322.97,-85.99C316.63,-74.41 305,-53.16 296.19,-37.07"/>
<polygon fill="red" stroke="red" stroke-width="0.14" points="299.37,-35.59 291.5,-28.5 293.23,-38.95 299.37,-35.59"/>
</g>
<!-- &#45;20 -->
<g id="node20" class="node">
<title>&#45;20</title>
<polygon fill="lightgray" stroke="black" points="35.07,-191.31 6.07,-191.31 6.07,-173.31 35.07,-173.31 35.07,-191.31"/>
<text text-anchor="middle" x="20.57" y="-180.11" font-family="Times New Roman,serif" font-size="9.00">&#45;20</text>
</g>
<!-- &#45;20&#45;&gt;control -->
<g id="edge18" class="edge">
<title>&#45;20&#45;&gt;control</title>
<path fill="none" stroke="green" stroke-width="0.49" d="M31.72,-172.86C47.62,-160.81 77.43,-138.2 100.53,-120.69"/>
<polygon fill="green" stroke="green" stroke-width="0.49" points="102.57,-123.53 108.43,-114.7 98.34,-117.95 102.57,-123.53"/>
</g>
<!-- &#45;20&#45;&gt;1 -->
<g id="edge21" class="edge">
<title>&#45;20&#45;&gt;1</title>
<path fill="none" stroke="green" stroke-width="0.72" stroke-dasharray="1,5" d="M16.57,-172.84C7.35,-151.92 -12.68,-97.22 13.57,-65.7 44.64,-28.39 196.8,-18.91 258.5,-16.58"/>
<polygon fill="green" stroke="green" stroke-width="0.72" points="258.61,-20.08 268.49,-16.24 258.38,-13.08 258.61,-20.08"/>
</g>
<!-- 469&#45;&gt;47 -->
<g id="edge27" class="edge">
<title>469&#45;&gt;47</title>
<path fill="none" stroke="red" stroke-width="0.25" d="M424.23,-162.46C429.7,-150.55 436.84,-135 442.82,-121.98"/>
<polygon fill="red" stroke="red" stroke-width="0.25" points="445.97,-123.51 446.96,-112.96 439.61,-120.59 445.97,-123.51"/>
</g>
<!-- 47&#45;&gt;1 -->
<g id="edge6" class="edge">
<title>47&#45;&gt;1</title>
<path fill="none" stroke="green" stroke-width="0.53" d="M442.4,-81.44C436.77,-76.02 429.75,-69.99 422.57,-65.7 385.9,-43.77 338.04,-29.18 309.4,-21.72"/>
<polygon fill="green" stroke="green" stroke-width="0.53" points="310.41,-18.37 299.85,-19.32 308.7,-25.16 310.41,-18.37"/>
</g>
</g>
</svg>
