<?xml version="1.0" encoding="UTF-8" standalone="no"?>
<!DOCTYPE svg PUBLIC "-//W3C//DTD SVG 1.1//EN"
 "http://www.w3.org/Graphics/SVG/1.1/DTD/svg11.dtd">
<!-- Generated by graphviz version 7.1.0 (20230121.1956)
 -->
<!-- Pages: 1 -->
<svg width="557pt" height="266pt"
 viewBox="0.00 0.00 556.50 265.52" xmlns="http://www.w3.org/2000/svg" xmlns:xlink="http://www.w3.org/1999/xlink">
<g id="graph0" class="graph" transform="scale(1 1) rotate(0) translate(4 261.52)">
<polygon fill="white" stroke="none" points="-4,4 -4,-261.52 552.5,-261.52 552.5,4 -4,4"/>
<!-- x -->
<g id="node1" class="node">
<title>x</title>
<polygon fill="lightgray" stroke="black" points="152,-191.31 132,-191.31 132,-173.31 152,-173.31 152,-191.31"/>
<text text-anchor="middle" x="142" y="-180.11" font-family="Times New Roman,serif" font-size="9.00">x</text>
</g>
<!-- control -->
<g id="node21" class="node">
<title>control</title>
<ellipse fill="lightblue" stroke="black" cx="94" cy="-95.4" rx="29.9" ry="29.9"/>
<text text-anchor="middle" x="94" y="-93.2" font-family="Times New Roman,serif" font-size="9.00">control</text>
</g>
<!-- x&#45;&gt;control -->
<g id="edge15" class="edge">
<title>x&#45;&gt;control</title>
<path fill="none" stroke="red" stroke-width="0.14" d="M137.22,-172.86C131.67,-163.04 122.16,-146.22 113.48,-130.85"/>
<polygon fill="red" stroke="red" stroke-width="0.14" points="116.56,-129.19 108.59,-122.21 110.47,-132.64 116.56,-129.19"/>
</g>
<!-- dx -->
<g id="node2" class="node">
<title>dx</title>
<polygon fill="lightgray" stroke="black" points="199.5,-191.31 174.5,-191.31 174.5,-173.31 199.5,-173.31 199.5,-191.31"/>
<text text-anchor="middle" x="187" y="-180.11" font-family="Times New Roman,serif" font-size="9.00">dx</text>
</g>
<!-- dx&#45;&gt;control -->
<g id="edge17" class="edge">
<title>dx&#45;&gt;control</title>
<path fill="none" stroke="green" stroke-width="0.18" d="M177.74,-172.86C165.09,-161.3 141.81,-140.05 123.01,-122.88"/>
<polygon fill="green" stroke="green" stroke-width="0.18" points="125.73,-120.63 115.99,-116.47 121.01,-125.8 125.73,-120.63"/>
</g>
<!-- 1 -->
<g id="node22" class="node">
<title>1</title>
<ellipse fill="lightblue" stroke="black" cx="322" cy="-14.85" rx="14.7" ry="14.7"/>
<text text-anchor="middle" x="322" y="-12.65" font-family="Times New Roman,serif" font-size="9.00">1</text>
</g>
<!-- dx&#45;&gt;1 -->
<g id="edge13" class="edge">
<title>dx&#45;&gt;1</title>
<path fill="none" stroke="red" stroke-width="0.13" d="M187.97,-173.01C190.75,-152.49 200.48,-98.63 229,-65.7 247.55,-44.28 277.64,-30.54 298.55,-23.03"/>
<polygon fill="red" stroke="red" stroke-width="0.13" points="299.45,-26.42 307.8,-19.89 297.21,-19.79 299.45,-26.42"/>
</g>
<!-- 47 -->
<g id="node24" class="node">
<title>47</title>
<ellipse fill="white" stroke="black" cx="420" cy="-95.4" rx="18.27" ry="18.27"/>
<text text-anchor="middle" x="420" y="-93.2" font-family="Times New Roman,serif" font-size="9.00">47</text>
</g>
<!-- dx&#45;&gt;47 -->
<g id="edge19" class="edge">
<title>dx&#45;&gt;47</title>
<path fill="none" stroke="green" stroke-width="0.45" d="M193.94,-173.04C197.92,-168.83 203.26,-164 209,-161.1 283.36,-123.49 320.05,-165.38 393,-125.1 396.27,-123.29 399.38,-120.94 402.24,-118.38"/>
<polygon fill="green" stroke="green" stroke-width="0.45" points="404.67,-120.9 409.12,-111.28 399.65,-116.02 404.67,-120.9"/>
</g>
<!-- theta -->
<g id="node3" class="node">
<title>theta</title>
<polygon fill="lightgray" stroke="black" points="529.5,-104.4 494.5,-104.4 494.5,-86.4 529.5,-86.4 529.5,-104.4"/>
<text text-anchor="middle" x="512" y="-93.2" font-family="Times New Roman,serif" font-size="9.00">theta</text>
</g>
<!-- theta&#45;&gt;1 -->
<g id="edge4" class="edge">
<title>theta&#45;&gt;1</title>
<path fill="none" stroke="green" stroke-width="0.19" d="M504.59,-86.04C498.54,-79.67 489.46,-71.1 480,-65.7 436.45,-40.86 378.96,-26.74 346.7,-20.25"/>
<polygon fill="green" stroke="green" stroke-width="0.19" points="347.55,-16.85 337.07,-18.39 346.22,-23.72 347.55,-16.85"/>
</g>
<!-- dtheta -->
<g id="node4" class="node">
<title>dtheta</title>
<polygon fill="lightgray" stroke="black" points="458.5,-191.31 419.5,-191.31 419.5,-173.31 458.5,-173.31 458.5,-191.31"/>
<text text-anchor="middle" x="439" y="-180.11" font-family="Times New Roman,serif" font-size="9.00">dtheta</text>
</g>
<!-- dtheta&#45;&gt;47 -->
<g id="edge8" class="edge">
<title>dtheta&#45;&gt;47</title>
<path fill="none" stroke="red" stroke-width="0.1" d="M437.11,-172.86C434.54,-161.35 429.81,-140.24 425.98,-123.12"/>
<polygon fill="red" stroke="red" stroke-width="0.1" points="429.48,-122.74 423.88,-113.74 422.65,-124.26 429.48,-122.74"/>
</g>
<!-- &#45;5 -->
<g id="node5" class="node">
<title>&#45;5</title>
<polygon fill="lightgray" stroke="black" points="501,-191.31 477,-191.31 477,-173.31 501,-173.31 501,-191.31"/>
<text text-anchor="middle" x="489" y="-180.11" font-family="Times New Roman,serif" font-size="9.00">&#45;5</text>
</g>
<!-- &#45;5&#45;&gt;47 -->
<g id="edge22" class="edge">
<title>&#45;5&#45;&gt;47</title>
<path fill="none" stroke="green" stroke-width="0.11" d="M482.13,-172.86C471.79,-160.12 451.87,-135.62 437.37,-117.77"/>
<polygon fill="green" stroke="green" stroke-width="0.11" points="440.27,-115.79 431.25,-110.24 434.84,-120.21 440.27,-115.79"/>
</g>
<!-- &#45;6 -->
<g id="node6" class="node">
<title>&#45;6</title>
<polygon fill="lightgray" stroke="black" points="166,-104.4 142,-104.4 142,-86.4 166,-86.4 166,-104.4"/>
<text text-anchor="middle" x="154" y="-93.2" font-family="Times New Roman,serif" font-size="9.00">&#45;6</text>
</g>
<!-- &#45;6&#45;&gt;1 -->
<g id="edge21" class="edge">
<title>&#45;6&#45;&gt;1</title>
<path fill="none" stroke="green" stroke-width="0.24" d="M159.75,-86.06C164.52,-79.7 171.82,-71.13 180,-65.7 217.22,-40.98 268.07,-27.04 297.74,-20.51"/>
<polygon fill="green" stroke="green" stroke-width="0.24" points="298.22,-23.99 307.29,-18.51 296.78,-17.14 298.22,-23.99"/>
</g>
<!-- &#45;7 -->
<g id="node7" class="node">
<title>&#45;7</title>
<polygon fill="lightgray" stroke="black" points="392,-257.52 368,-257.52 368,-239.52 392,-239.52 392,-257.52"/>
<text text-anchor="middle" x="380" y="-246.32" font-family="Times New Roman,serif" font-size="9.00">&#45;7</text>
</g>
<!-- 469 -->
<g id="node23" class="node">
<title>469</title>
<ellipse fill="white" stroke="black" cx="380" cy="-182.31" rx="21.43" ry="21.43"/>
<text text-anchor="middle" x="380" y="-180.11" font-family="Times New Roman,serif" font-size="9.00">469</text>
</g>
<!-- &#45;7&#45;&gt;469 -->
<g id="edge23" class="edge">
<title>&#45;7&#45;&gt;469</title>
<path fill="none" stroke="green" stroke-width="0.42" d="M380,-239.13C380,-232.77 380,-223.62 380,-214.56"/>
<polygon fill="green" stroke="green" stroke-width="0.42" points="383.5,-214.77 380,-204.77 376.5,-214.77 383.5,-214.77"/>
</g>
<!-- &#45;8 -->
<g id="node8" class="node">
<title>&#45;8</title>
<polygon fill="lightgray" stroke="black" points="24,-191.31 0,-191.31 0,-173.31 24,-173.31 24,-191.31"/>
<text text-anchor="middle" x="12" y="-180.11" font-family="Times New Roman,serif" font-size="9.00">&#45;8</text>
</g>
<!-- &#45;8&#45;&gt;control -->
<g id="edge11" class="edge">
<title>&#45;8&#45;&gt;control</title>
<path fill="none" stroke="red" stroke-width="0.17" d="M20.16,-172.86C30.94,-161.7 50.45,-141.5 66.71,-124.66"/>
<polygon fill="red" stroke="red" stroke-width="0.17" points="68.84,-127.49 73.26,-117.87 63.8,-122.63 68.84,-127.49"/>
</g>
<!-- &#45;9 -->
<g id="node9" class="node">
<title>&#45;9</title>
<polygon fill="lightgray" stroke="black" points="66,-191.31 42,-191.31 42,-173.31 66,-173.31 66,-191.31"/>
<text text-anchor="middle" x="54" y="-180.11" font-family="Times New Roman,serif" font-size="9.00">&#45;9</text>
</g>
<!-- &#45;9&#45;&gt;control -->
<g id="edge14" class="edge">
<title>&#45;9&#45;&gt;control</title>
<path fill="none" stroke="red" stroke-width="0.67" d="M57.98,-172.86C62.46,-163.36 70.02,-147.31 77.06,-132.36"/>
<polygon fill="red" stroke="red" stroke-width="0.67" points="80.04,-134.24 81.14,-123.7 73.71,-131.25 80.04,-134.24"/>
</g>
<!-- &#45;10 -->
<g id="node10" class="node">
<title>&#45;10</title>
<polygon fill="lightgray" stroke="black" points="439.5,-257.52 410.5,-257.52 410.5,-239.52 439.5,-239.52 439.5,-257.52"/>
<text text-anchor="middle" x="425" y="-246.32" font-family="Times New Roman,serif" font-size="9.00">&#45;10</text>
</g>
<!-- &#45;11 -->
<g id="node11" class="node">
<title>&#45;11</title>
<polygon fill="lightgray" stroke="black" points="246.5,-191.31 217.5,-191.31 217.5,-173.31 246.5,-173.31 246.5,-191.31"/>
<text text-anchor="middle" x="232" y="-180.11" font-family="Times New Roman,serif" font-size="9.00">&#45;11</text>
</g>
<!-- &#45;11&#45;&gt;control -->
<g id="edge12" class="edge">
<title>&#45;11&#45;&gt;control</title>
<path fill="none" stroke="red" stroke-width="0.32" d="M223.51,-172.82C219.36,-168.95 214.15,-164.48 209,-161.1 177.77,-140.56 165.09,-144.26 133,-125.1 130.56,-123.64 128.09,-122.07 125.64,-120.44"/>
<polygon fill="red" stroke="red" stroke-width="0.32" points="128.04,-117.85 117.83,-115.03 124.06,-123.6 128.04,-117.85"/>
</g>
<!-- &#45;11&#45;&gt;1 -->
<g id="edge9" class="edge">
<title>&#45;11&#45;&gt;1</title>
<path fill="none" stroke="green" stroke-width="0.12" d="M231.39,-172.99C230.31,-152.89 229.98,-100.7 252,-65.7 263.36,-47.65 283.86,-34.21 299.75,-25.87"/>
<polygon fill="green" stroke="green" stroke-width="0.12" points="300.89,-29.21 308.3,-21.63 297.78,-22.93 300.89,-29.21"/>
</g>
<!-- &#45;11&#45;&gt;47 -->
<g id="edge10" class="edge">
<title>&#45;11&#45;&gt;47</title>
<path fill="none" stroke="green" stroke-width="0.36" d="M239.78,-173.21C244.19,-169.05 250,-164.21 256,-161.1 311.89,-132.11 338.89,-157.27 393,-125.1 396.31,-123.13 399.47,-120.64 402.39,-117.95"/>
<polygon fill="green" stroke="green" stroke-width="0.36" points="404.68,-120.61 409.1,-110.98 399.64,-115.76 404.68,-120.61"/>
</g>
<!-- &#45;12 -->
<g id="node12" class="node">
<title>&#45;12</title>
<polygon fill="lightgray" stroke="black" points="293.5,-191.31 264.5,-191.31 264.5,-173.31 293.5,-173.31 293.5,-191.31"/>
<text text-anchor="middle" x="279" y="-180.11" font-family="Times New Roman,serif" font-size="9.00">&#45;12</text>
</g>
<!-- &#45;12&#45;&gt;47 -->
<g id="edge2" class="edge">
<title>&#45;12&#45;&gt;47</title>
<path fill="none" stroke="green" stroke-width="0.37" d="M287.38,-173.1C291.77,-169.11 297.39,-164.46 303,-161.1 339.95,-138.94 357.4,-149.36 393,-125.1 396.12,-122.97 399.16,-120.42 401.99,-117.74"/>
<polygon fill="green" stroke="green" stroke-width="0.37" points="404.16,-120.53 408.58,-110.9 399.12,-115.68 404.16,-120.53"/>
</g>
<!-- &#45;13 -->
<g id="node13" class="node">
<title>&#45;13</title>
<polygon fill="lightgray" stroke="black" points="486.5,-257.52 457.5,-257.52 457.5,-239.52 486.5,-239.52 486.5,-257.52"/>
<text text-anchor="middle" x="472" y="-246.32" font-family="Times New Roman,serif" font-size="9.00">&#45;13</text>
</g>
<!-- &#45;14 -->
<g id="node14" class="node">
<title>&#45;14</title>
<polygon fill="lightgray" stroke="black" points="533.5,-257.52 504.5,-257.52 504.5,-239.52 533.5,-239.52 533.5,-257.52"/>
<text text-anchor="middle" x="519" y="-246.32" font-family="Times New Roman,serif" font-size="9.00">&#45;14</text>
</g>
<!-- &#45;15 -->
<g id="node15" class="node">
<title>&#45;15</title>
<polygon fill="lightgray" stroke="black" points="340.5,-191.31 311.5,-191.31 311.5,-173.31 340.5,-173.31 340.5,-191.31"/>
<text text-anchor="middle" x="326" y="-180.11" font-family="Times New Roman,serif" font-size="9.00">&#45;15</text>
</g>
<!-- &#45;15&#45;&gt;47 -->
<g id="edge18" class="edge">
<title>&#45;15&#45;&gt;47</title>
<path fill="none" stroke="green" stroke-width="0.71" d="M335.8,-173.04C340.15,-169.38 345.33,-165.02 350,-161.1 369.09,-145.07 374.87,-142.2 393,-125.1 395.59,-122.65 398.24,-120.02 400.82,-117.37"/>
<polygon fill="green" stroke="green" stroke-width="0.71" points="403.14,-120.02 407.48,-110.35 398.06,-115.2 403.14,-120.02"/>
</g>
<!-- &#45;16 -->
<g id="node16" class="node">
<title>&#45;16</title>
<polygon fill="lightgray" stroke="black" points="289.5,-104.4 260.5,-104.4 260.5,-86.4 289.5,-86.4 289.5,-104.4"/>
<text text-anchor="middle" x="275" y="-93.2" font-family="Times New Roman,serif" font-size="9.00">&#45;16</text>
</g>
<!-- &#45;16&#45;&gt;1 -->
<g id="edge1" class="edge">
<title>&#45;16&#45;&gt;1</title>
<path fill="none" stroke="red" stroke-width="0.31" d="M280.03,-85.99C287,-74.35 299.82,-52.92 309.46,-36.8"/>
<polygon fill="red" stroke="red" stroke-width="0.31" points="312.34,-38.82 314.47,-28.44 306.33,-35.22 312.34,-38.82"/>
</g>
<!-- &#45;17 -->
<g id="node17" class="node">
<title>&#45;17</title>
<polygon fill="lightgray" stroke="black" points="336.5,-104.4 307.5,-104.4 307.5,-86.4 336.5,-86.4 336.5,-104.4"/>
<text text-anchor="middle" x="322" y="-93.2" font-family="Times New Roman,serif" font-size="9.00">&#45;17</text>
</g>
<!-- &#45;17&#45;&gt;1 -->
<g id="edge7" class="edge">
<title>&#45;17&#45;&gt;1</title>
<path fill="none" stroke="red" stroke-width="0.42" d="M322,-85.99C322,-75.23 322,-56.11 322,-40.54"/>
<polygon fill="red" stroke="red" stroke-width="0.42" points="325.5,-40.65 322,-30.65 318.5,-40.65 325.5,-40.65"/>
</g>
<!-- &#45;18 -->
<g id="node18" class="node">
<title>&#45;18</title>
<polygon fill="lightgray" stroke="black" points="548.5,-191.31 519.5,-191.31 519.5,-173.31 548.5,-173.31 548.5,-191.31"/>
<text text-anchor="middle" x="534" y="-180.11" font-family="Times New Roman,serif" font-size="9.00">&#45;18</text>
</g>
<!-- &#45;18&#45;&gt;1 -->
<g id="edge20" class="edge">
<title>&#45;18&#45;&gt;1</title>
<path fill="none" stroke="red" stroke-width="0.11" d="M526.17,-172.83C516.36,-162.06 499.25,-142.75 486,-125.1 467.04,-99.84 471.46,-85.67 447,-65.7 416.96,-41.18 373.33,-27.5 346.36,-20.91"/>
<polygon fill="red" stroke="red" stroke-width="0.11" points="347.26,-17.53 336.73,-18.69 345.68,-24.35 347.26,-17.53"/>
</g>
<!-- &#45;18&#45;&gt;47 -->
<g id="edge3" class="edge">
<title>&#45;18&#45;&gt;47</title>
<path fill="none" stroke="red" stroke-width="0.11" d="M524.91,-173.11C520.52,-169.3 515.11,-164.81 510,-161.1 485.44,-143.28 476.28,-143.29 452,-125.1 448.1,-122.17 444.11,-118.87 440.32,-115.58"/>
<polygon fill="red" stroke="red" stroke-width="0.11" points="442.84,-113.14 433.07,-109.06 438.16,-118.34 442.84,-113.14"/>
</g>
<!-- &#45;19 -->
<g id="node19" class="node">
<title>&#45;19</title>
<polygon fill="lightgray" stroke="black" points="383.5,-104.4 354.5,-104.4 354.5,-86.4 383.5,-86.4 383.5,-104.4"/>
<text text-anchor="middle" x="369" y="-93.2" font-family="Times New Roman,serif" font-size="9.00">&#45;19</text>
</g>
<!-- &#45;19&#45;&gt;1 -->
<g id="edge6" class="edge">
<title>&#45;19&#45;&gt;1</title>
<path fill="none" stroke="red" stroke-width="0.14" d="M363.97,-85.99C356.94,-74.24 343.94,-52.52 334.27,-36.35"/>
<polygon fill="red" stroke="red" stroke-width="0.14" points="337.54,-35 329.4,-28.22 331.53,-38.6 337.54,-35"/>
</g>
<!-- &#45;20 -->
<g id="node20" class="node">
<title>&#45;20</title>
<polygon fill="lightgray" stroke="black" points="113.5,-191.31 84.5,-191.31 84.5,-173.31 113.5,-173.31 113.5,-191.31"/>
<text text-anchor="middle" x="99" y="-180.11" font-family="Times New Roman,serif" font-size="9.00">&#45;20</text>
</g>
<!-- &#45;20&#45;&gt;control -->
<g id="edge16" class="edge">
<title>&#45;20&#45;&gt;control</title>
<path fill="none" stroke="green" stroke-width="0.49" d="M98.5,-172.86C97.99,-164.1 97.14,-149.77 96.32,-135.87"/>
<polygon fill="green" stroke="green" stroke-width="0.49" points="99.83,-135.94 95.75,-126.16 92.85,-136.35 99.83,-135.94"/>
</g>
<!-- 469&#45;&gt;47 -->
<g id="edge24" class="edge">
<title>469&#45;&gt;47</title>
<path fill="none" stroke="red" stroke-width="0.25" d="M388.88,-162.46C394.53,-150.47 401.91,-134.8 408.07,-121.72"/>
<polygon fill="red" stroke="red" stroke-width="0.25" points="411.23,-123.22 412.33,-112.68 404.9,-120.24 411.23,-123.22"/>
</g>
<!-- 47&#45;&gt;1 -->
<g id="edge5" class="edge">
<title>47&#45;&gt;1</title>
<path fill="none" stroke="green" stroke-width="0.53" d="M408.43,-80.99C403.84,-75.97 398.38,-70.36 393,-65.7 377.22,-52.03 357.71,-38.54 343.14,-29.05"/>
<polygon fill="green" stroke="green" stroke-width="0.53" points="345.35,-26.31 335.04,-23.87 341.57,-32.21 345.35,-26.31"/>
</g>
</g>
</svg>
