<?xml version="1.0" encoding="UTF-8" standalone="no"?>
<!DOCTYPE svg PUBLIC "-//W3C//DTD SVG 1.1//EN"
 "http://www.w3.org/Graphics/SVG/1.1/DTD/svg11.dtd">
<!-- Generated by graphviz version 7.1.0 (20230121.1956)
 -->
<!-- Pages: 1 -->
<svg width="793pt" height="278pt"
 viewBox="0.00 0.00 793.00 278.25" xmlns="http://www.w3.org/2000/svg" xmlns:xlink="http://www.w3.org/1999/xlink">
<g id="graph0" class="graph" transform="scale(1 1) rotate(0) translate(4 274.25)">
<polygon fill="white" stroke="none" points="-4,4 -4,-274.25 789,-274.25 789,4 -4,4"/>
<!-- x -->
<g id="node1" class="node">
<title>x</title>
<polygon fill="lightgray" stroke="black" points="561.5,-125.61 541.5,-125.61 541.5,-107.61 561.5,-107.61 561.5,-125.61"/>
<text text-anchor="middle" x="551.5" y="-114.41" font-family="Times New Roman,serif" font-size="9.00">x</text>
</g>
<!-- control -->
<g id="node21" class="node">
<title>control</title>
<ellipse fill="lightblue" stroke="black" cx="406.5" cy="-29.7" rx="29.9" ry="29.9"/>
<text text-anchor="middle" x="406.5" y="-27.5" font-family="Times New Roman,serif" font-size="9.00">control</text>
</g>
<!-- x&#45;&gt;control -->
<g id="edge3" class="edge">
<title>x&#45;&gt;control</title>
<path fill="none" stroke="red" stroke-width="0.84" d="M545.02,-107.5C541.58,-103.53 537.12,-98.87 532.5,-95.4 505.31,-74.92 470.68,-57.67 444.61,-46.15"/>
<polygon fill="red" stroke="red" stroke-width="0.84" points="446.1,-42.98 435.53,-42.22 443.32,-49.4 446.1,-42.98"/>
</g>
<!-- dx -->
<g id="node2" class="node">
<title>dx</title>
<polygon fill="lightgray" stroke="black" points="219,-204.04 194,-204.04 194,-186.04 219,-186.04 219,-204.04"/>
<text text-anchor="middle" x="206.5" y="-192.84" font-family="Times New Roman,serif" font-size="9.00">dx</text>
</g>
<!-- 1 -->
<g id="node22" class="node">
<title>1</title>
<ellipse fill="lightblue" stroke="black" cx="254.5" cy="-116.61" rx="14.7" ry="14.7"/>
<text text-anchor="middle" x="254.5" y="-114.41" font-family="Times New Roman,serif" font-size="9.00">1</text>
</g>
<!-- dx&#45;&gt;1 -->
<g id="edge11" class="edge">
<title>dx&#45;&gt;1</title>
<path fill="none" stroke="green" stroke-width="0.55" d="M211.82,-185.57C218.9,-174.3 231.64,-154.01 241.36,-138.53"/>
<polygon fill="green" stroke="green" stroke-width="0.55" points="244.15,-140.67 246.51,-130.34 238.22,-136.94 244.15,-140.67"/>
</g>
<!-- theta -->
<g id="node3" class="node">
<title>theta</title>
<polygon fill="lightgray" stroke="black" points="272,-204.04 237,-204.04 237,-186.04 272,-186.04 272,-204.04"/>
<text text-anchor="middle" x="254.5" y="-192.84" font-family="Times New Roman,serif" font-size="9.00">theta</text>
</g>
<!-- theta&#45;&gt;1 -->
<g id="edge13" class="edge">
<title>theta&#45;&gt;1</title>
<path fill="none" stroke="green" stroke-width="0.25" d="M254.5,-185.57C254.5,-175.06 254.5,-156.7 254.5,-141.71"/>
<polygon fill="green" stroke="green" stroke-width="0.25" points="258,-141.93 254.5,-131.93 251,-141.93 258,-141.93"/>
</g>
<!-- dtheta -->
<g id="node4" class="node">
<title>dtheta</title>
<polygon fill="lightgray" stroke="black" points="86,-204.04 47,-204.04 47,-186.04 86,-186.04 86,-204.04"/>
<text text-anchor="middle" x="66.5" y="-192.84" font-family="Times New Roman,serif" font-size="9.00">dtheta</text>
</g>
<!-- dtheta&#45;&gt;control -->
<g id="edge4" class="edge">
<title>dtheta&#45;&gt;control</title>
<path fill="none" stroke="green" stroke-width="0.6" stroke-dasharray="1,5" d="M78.2,-185.55C83.43,-181.85 89.7,-177.52 95.5,-173.82 154.01,-136.52 167.7,-124.91 230.5,-95.4 276.36,-73.85 331.51,-54.59 367.7,-42.8"/>
<polygon fill="green" stroke="green" stroke-width="0.6" points="368.53,-46.21 376.98,-39.81 366.38,-39.55 368.53,-46.21"/>
</g>
<!-- dtheta&#45;&gt;1 -->
<g id="edge2" class="edge">
<title>dtheta&#45;&gt;1</title>
<path fill="none" stroke="red" stroke-width="0.26" d="M77.04,-185.55C82.34,-181.58 89.01,-177.04 95.5,-173.82 142.35,-150.62 158.54,-156.17 207.5,-137.82 215.6,-134.79 224.33,-131.14 232.05,-127.78"/>
<polygon fill="red" stroke="red" stroke-width="0.26" points="233.37,-131.02 241.1,-123.77 230.54,-124.62 233.37,-131.02"/>
</g>
<!-- 562 -->
<g id="node24" class="node">
<title>562</title>
<ellipse fill="white" stroke="black" cx="100.5" cy="-116.61" rx="21.43" ry="21.43"/>
<text text-anchor="middle" x="100.5" y="-114.41" font-family="Times New Roman,serif" font-size="9.00">562</text>
</g>
<!-- dtheta&#45;&gt;562 -->
<g id="edge28" class="edge">
<title>dtheta&#45;&gt;562</title>
<path fill="none" stroke="green" stroke-width="0.15" d="M70.27,-185.57C74.51,-176.03 81.63,-160.03 87.9,-145.94"/>
<polygon fill="green" stroke="green" stroke-width="0.15" points="91.09,-147.37 91.96,-136.81 84.69,-144.53 91.09,-147.37"/>
</g>
<!-- 273 -->
<g id="node25" class="node">
<title>273</title>
<ellipse fill="white" stroke="black" cx="40.5" cy="-116.61" rx="21.43" ry="21.43"/>
<text text-anchor="middle" x="40.5" y="-114.41" font-family="Times New Roman,serif" font-size="9.00">273</text>
</g>
<!-- dtheta&#45;&gt;273 -->
<g id="edge26" class="edge">
<title>dtheta&#45;&gt;273</title>
<path fill="none" stroke="red" stroke-width="0.15" stroke-dasharray="1,5" d="M63.62,-185.57C60.45,-176.25 55.18,-160.75 50.47,-146.91"/>
<polygon fill="red" stroke="red" stroke-width="0.15" points="53.78,-145.78 47.25,-137.44 47.15,-148.04 53.78,-145.78"/>
</g>
<!-- &#45;5 -->
<g id="node5" class="node">
<title>&#45;5</title>
<polygon fill="lightgray" stroke="black" points="128.5,-204.04 104.5,-204.04 104.5,-186.04 128.5,-186.04 128.5,-204.04"/>
<text text-anchor="middle" x="116.5" y="-192.84" font-family="Times New Roman,serif" font-size="9.00">&#45;5</text>
</g>
<!-- &#45;5&#45;&gt;1 -->
<g id="edge10" class="edge">
<title>&#45;5&#45;&gt;1</title>
<path fill="none" stroke="green" stroke-width="0.31" d="M123.76,-185.92C127.59,-181.95 132.51,-177.29 137.5,-173.82 153.73,-162.55 202.61,-140.35 231.8,-127.48"/>
<polygon fill="green" stroke="green" stroke-width="0.31" points="233.04,-130.76 240.8,-123.54 230.23,-124.35 233.04,-130.76"/>
</g>
<!-- &#45;6 -->
<g id="node6" class="node">
<title>&#45;6</title>
<polygon fill="lightgray" stroke="black" points="569.5,-270.25 545.5,-270.25 545.5,-252.25 569.5,-252.25 569.5,-270.25"/>
<text text-anchor="middle" x="557.5" y="-259.05" font-family="Times New Roman,serif" font-size="9.00">&#45;6</text>
</g>
<!-- &#45;7 -->
<g id="node7" class="node">
<title>&#45;7</title>
<polygon fill="lightgray" stroke="black" points="648.5,-204.04 624.5,-204.04 624.5,-186.04 648.5,-186.04 648.5,-204.04"/>
<text text-anchor="middle" x="636.5" y="-192.84" font-family="Times New Roman,serif" font-size="9.00">&#45;7</text>
</g>
<!-- 113 -->
<g id="node23" class="node">
<title>113</title>
<ellipse fill="white" stroke="black" cx="502.5" cy="-116.61" rx="21.43" ry="21.43"/>
<text text-anchor="middle" x="502.5" y="-114.41" font-family="Times New Roman,serif" font-size="9.00">113</text>
</g>
<!-- &#45;7&#45;&gt;113 -->
<g id="edge7" class="edge">
<title>&#45;7&#45;&gt;113</title>
<path fill="none" stroke="red" stroke-width="0.15" d="M629.3,-185.83C625.48,-181.84 620.55,-177.19 615.5,-173.82 582.04,-151.53 567.77,-157.14 532.5,-137.82 531.02,-137.01 529.53,-136.15 528.03,-135.26"/>
<polygon fill="red" stroke="red" stroke-width="0.15" points="530.12,-132.44 519.8,-130.04 526.37,-138.35 530.12,-132.44"/>
</g>
<!-- &#45;8 -->
<g id="node8" class="node">
<title>&#45;8</title>
<polygon fill="lightgray" stroke="black" points="611.5,-270.25 587.5,-270.25 587.5,-252.25 611.5,-252.25 611.5,-270.25"/>
<text text-anchor="middle" x="599.5" y="-259.05" font-family="Times New Roman,serif" font-size="9.00">&#45;8</text>
</g>
<!-- &#45;9 -->
<g id="node9" class="node">
<title>&#45;9</title>
<polygon fill="lightgray" stroke="black" points="690.5,-204.04 666.5,-204.04 666.5,-186.04 690.5,-186.04 690.5,-204.04"/>
<text text-anchor="middle" x="678.5" y="-192.84" font-family="Times New Roman,serif" font-size="9.00">&#45;9</text>
</g>
<!-- &#45;9&#45;&gt;113 -->
<g id="edge6" class="edge">
<title>&#45;9&#45;&gt;113</title>
<path fill="none" stroke="red" stroke-width="0.33" d="M671.47,-185.55C667.7,-181.49 662.76,-176.86 657.5,-173.82 607.43,-144.93 584.89,-162.27 532.5,-137.82 531.11,-137.18 529.72,-136.47 528.33,-135.72"/>
<polygon fill="red" stroke="red" stroke-width="0.33" points="530.21,-132.76 519.84,-130.59 526.59,-138.76 530.21,-132.76"/>
</g>
<!-- &#45;10 -->
<g id="node10" class="node">
<title>&#45;10</title>
<polygon fill="lightgray" stroke="black" points="366,-204.04 337,-204.04 337,-186.04 366,-186.04 366,-204.04"/>
<text text-anchor="middle" x="351.5" y="-192.84" font-family="Times New Roman,serif" font-size="9.00">&#45;10</text>
</g>
<!-- &#45;10&#45;&gt;control -->
<g id="edge24" class="edge">
<title>&#45;10&#45;&gt;control</title>
<path fill="none" stroke="green" stroke-width="0.27" d="M354.3,-185.71C361.51,-164.32 381.02,-106.38 394.04,-67.72"/>
<polygon fill="green" stroke="green" stroke-width="0.27" points="397.19,-69.32 397.06,-58.73 390.55,-67.09 397.19,-69.32"/>
</g>
<!-- &#45;10&#45;&gt;1 -->
<g id="edge12" class="edge">
<title>&#45;10&#45;&gt;1</title>
<path fill="none" stroke="green" stroke-width="0.56" d="M342.23,-185.62C338.09,-181.93 333.11,-177.59 328.5,-173.82 310.71,-159.28 289.81,-143.52 274.76,-132.4"/>
<polygon fill="green" stroke="green" stroke-width="0.56" points="277.05,-129.73 266.92,-126.63 272.9,-135.37 277.05,-129.73"/>
</g>
<!-- &#45;10&#45;&gt;113 -->
<g id="edge25" class="edge">
<title>&#45;10&#45;&gt;113</title>
<path fill="none" stroke="green" stroke-width="0.3" d="M359.93,-185.92C364.34,-181.94 369.96,-177.29 375.5,-173.82 406.87,-154.23 446.25,-137.93 472.77,-128.02"/>
<polygon fill="green" stroke="green" stroke-width="0.3" points="473.66,-131.42 481.84,-124.69 471.25,-124.85 473.66,-131.42"/>
</g>
<!-- &#45;11 -->
<g id="node11" class="node">
<title>&#45;11</title>
<polygon fill="lightgray" stroke="black" points="319,-204.04 290,-204.04 290,-186.04 319,-186.04 319,-204.04"/>
<text text-anchor="middle" x="304.5" y="-192.84" font-family="Times New Roman,serif" font-size="9.00">&#45;11</text>
</g>
<!-- &#45;11&#45;&gt;control -->
<g id="edge9" class="edge">
<title>&#45;11&#45;&gt;control</title>
<path fill="none" stroke="red" stroke-width="0.16" d="M309.7,-185.71C323.51,-163.59 361.72,-102.41 385.8,-63.85"/>
<polygon fill="red" stroke="red" stroke-width="0.16" points="388.54,-66.06 390.87,-55.73 382.6,-62.36 388.54,-66.06"/>
</g>
<!-- &#45;11&#45;&gt;1 -->
<g id="edge16" class="edge">
<title>&#45;11&#45;&gt;1</title>
<path fill="none" stroke="green" stroke-width="0.28" d="M298.96,-185.57C291.48,-174.13 277.91,-153.39 267.72,-137.82"/>
<polygon fill="green" stroke="green" stroke-width="0.28" points="270.83,-136.17 262.42,-129.72 264.97,-140 270.83,-136.17"/>
</g>
<!-- &#45;12 -->
<g id="node12" class="node">
<title>&#45;12</title>
<polygon fill="lightgray" stroke="black" points="738,-204.04 709,-204.04 709,-186.04 738,-186.04 738,-204.04"/>
<text text-anchor="middle" x="723.5" y="-192.84" font-family="Times New Roman,serif" font-size="9.00">&#45;12</text>
</g>
<!-- &#45;12&#45;&gt;113 -->
<g id="edge21" class="edge">
<title>&#45;12&#45;&gt;113</title>
<path fill="none" stroke="red" stroke-width="0.75" d="M715.77,-185.83C711.38,-181.63 705.56,-176.8 699.5,-173.82 631.34,-140.38 602.36,-167.57 532.5,-137.82 531.23,-137.28 529.96,-136.69 528.7,-136.05"/>
<polygon fill="red" stroke="red" stroke-width="0.75" points="530.68,-133.15 520.28,-131.13 527.15,-139.2 530.68,-133.15"/>
</g>
<!-- &#45;13 -->
<g id="node13" class="node">
<title>&#45;13</title>
<polygon fill="lightgray" stroke="black" points="527,-270.25 498,-270.25 498,-252.25 527,-252.25 527,-270.25"/>
<text text-anchor="middle" x="512.5" y="-259.05" font-family="Times New Roman,serif" font-size="9.00">&#45;13</text>
</g>
<!-- &#45;13&#45;&gt;113 -->
<g id="edge15" class="edge">
<title>&#45;13&#45;&gt;113</title>
<path fill="none" stroke="red" stroke-width="0.26" stroke-dasharray="1,5" d="M511.38,-251.83C510.25,-242.99 508.52,-228.66 507.5,-216.25 505.64,-193.61 504.37,-167.99 503.57,-148.53"/>
<polygon fill="red" stroke="red" stroke-width="0.26" points="507.08,-148.67 503.19,-138.81 500.08,-148.94 507.08,-148.67"/>
</g>
<!-- 185 -->
<g id="node26" class="node">
<title>185</title>
<ellipse fill="white" stroke="black" cx="537.5" cy="-195.04" rx="21.43" ry="21.43"/>
<text text-anchor="middle" x="537.5" y="-192.84" font-family="Times New Roman,serif" font-size="9.00">185</text>
</g>
<!-- &#45;13&#45;&gt;185 -->
<g id="edge30" class="edge">
<title>&#45;13&#45;&gt;185</title>
<path fill="none" stroke="green" stroke-width="0.49" d="M515.77,-251.86C518.42,-245.04 522.33,-235.01 526.1,-225.33"/>
<polygon fill="green" stroke="green" stroke-width="0.49" points="529.28,-226.78 529.65,-216.2 522.76,-224.24 529.28,-226.78"/>
</g>
<!-- &#45;14 -->
<g id="node14" class="node">
<title>&#45;14</title>
<polygon fill="lightgray" stroke="black" points="606,-204.04 577,-204.04 577,-186.04 606,-186.04 606,-204.04"/>
<text text-anchor="middle" x="591.5" y="-192.84" font-family="Times New Roman,serif" font-size="9.00">&#45;14</text>
</g>
<!-- &#45;14&#45;&gt;113 -->
<g id="edge23" class="edge">
<title>&#45;14&#45;&gt;113</title>
<path fill="none" stroke="red" stroke-width="0.45" d="M581.64,-185.57C568.37,-174.17 544.36,-153.55 526.25,-138.01"/>
<polygon fill="red" stroke="red" stroke-width="0.45" points="528.79,-135.57 518.92,-131.71 524.23,-140.88 528.79,-135.57"/>
</g>
<!-- &#45;15 -->
<g id="node15" class="node">
<title>&#45;15</title>
<polygon fill="lightgray" stroke="black" points="29,-204.04 0,-204.04 0,-186.04 29,-186.04 29,-204.04"/>
<text text-anchor="middle" x="14.5" y="-192.84" font-family="Times New Roman,serif" font-size="9.00">&#45;15</text>
</g>
<!-- &#45;15&#45;&gt;273 -->
<g id="edge29" class="edge">
<title>&#45;15&#45;&gt;273</title>
<path fill="none" stroke="red" stroke-width="0.32" d="M17.38,-185.57C20.55,-176.25 25.82,-160.75 30.53,-146.91"/>
<polygon fill="red" stroke="red" stroke-width="0.32" points="33.76,-148.28 33.67,-137.69 27.13,-146.03 33.76,-148.28"/>
</g>
<!-- &#45;16 -->
<g id="node16" class="node">
<title>&#45;16</title>
<polygon fill="lightgray" stroke="black" points="785,-204.04 756,-204.04 756,-186.04 785,-186.04 785,-204.04"/>
<text text-anchor="middle" x="770.5" y="-192.84" font-family="Times New Roman,serif" font-size="9.00">&#45;16</text>
</g>
<!-- &#45;16&#45;&gt;control -->
<g id="edge1" class="edge">
<title>&#45;16&#45;&gt;control</title>
<path fill="none" stroke="red" stroke-width="0.11" d="M762.47,-185.89C758.26,-181.92 752.87,-177.26 747.5,-173.82 645.89,-108.83 509.79,-62.15 444.52,-41.91"/>
<polygon fill="red" stroke="red" stroke-width="0.11" points="445.79,-38.64 435.21,-39.05 443.74,-45.33 445.79,-38.64"/>
</g>
<!-- &#45;16&#45;&gt;113 -->
<g id="edge14" class="edge">
<title>&#45;16&#45;&gt;113</title>
<path fill="none" stroke="red" stroke-width="0.15" d="M763.21,-185.71C759.04,-181.48 753.45,-176.65 747.5,-173.82 659.99,-132.25 622.5,-173.71 532.5,-137.82 530.94,-137.2 529.37,-136.48 527.82,-135.71"/>
<polygon fill="red" stroke="red" stroke-width="0.15" points="529.84,-132.83 519.44,-130.82 526.32,-138.88 529.84,-132.83"/>
</g>
<!-- &#45;17 -->
<g id="node17" class="node">
<title>&#45;17</title>
<polygon fill="lightgray" stroke="black" points="413,-204.04 384,-204.04 384,-186.04 413,-186.04 413,-204.04"/>
<text text-anchor="middle" x="398.5" y="-192.84" font-family="Times New Roman,serif" font-size="9.00">&#45;17</text>
</g>
<!-- &#45;17&#45;&gt;1 -->
<g id="edge8" class="edge">
<title>&#45;17&#45;&gt;1</title>
<path fill="none" stroke="red" stroke-width="0.65" d="M390.45,-185.93C386.23,-181.97 380.84,-177.31 375.5,-173.82 343.9,-153.21 303.52,-136.07 278.33,-126.33"/>
<polygon fill="red" stroke="red" stroke-width="0.65" points="279.74,-123.12 269.15,-122.85 277.26,-129.67 279.74,-123.12"/>
</g>
<!-- &#45;17&#45;&gt;113 -->
<g id="edge18" class="edge">
<title>&#45;17&#45;&gt;113</title>
<path fill="none" stroke="red" stroke-width="0.16" d="M408.15,-185.58C412.47,-181.88 417.67,-177.55 422.5,-173.82 440.2,-160.19 460.85,-145.72 476.73,-134.87"/>
<polygon fill="red" stroke="red" stroke-width="0.16" points="478.52,-137.89 484.82,-129.38 474.58,-132.1 478.52,-137.89"/>
</g>
<!-- &#45;18 -->
<g id="node18" class="node">
<title>&#45;18</title>
<polygon fill="lightgray" stroke="black" points="659,-270.25 630,-270.25 630,-252.25 659,-252.25 659,-270.25"/>
<text text-anchor="middle" x="644.5" y="-259.05" font-family="Times New Roman,serif" font-size="9.00">&#45;18</text>
</g>
<!-- &#45;19 -->
<g id="node19" class="node">
<title>&#45;19</title>
<polygon fill="lightgray" stroke="black" points="176,-204.04 147,-204.04 147,-186.04 176,-186.04 176,-204.04"/>
<text text-anchor="middle" x="161.5" y="-192.84" font-family="Times New Roman,serif" font-size="9.00">&#45;19</text>
</g>
<!-- &#45;19&#45;&gt;1 -->
<g id="edge19" class="edge">
<title>&#45;19&#45;&gt;1</title>
<path fill="none" stroke="red" stroke-width="0.16" d="M171.28,-185.74C175.62,-182.07 180.8,-177.72 185.5,-173.82 202.25,-159.95 221.45,-144.33 235.33,-133.09"/>
<polygon fill="red" stroke="red" stroke-width="0.16" points="237.46,-135.87 243.03,-126.86 233.06,-130.43 237.46,-135.87"/>
</g>
<!-- &#45;20 -->
<g id="node20" class="node">
<title>&#45;20</title>
<polygon fill="lightgray" stroke="black" points="460,-204.04 431,-204.04 431,-186.04 460,-186.04 460,-204.04"/>
<text text-anchor="middle" x="445.5" y="-192.84" font-family="Times New Roman,serif" font-size="9.00">&#45;20</text>
</g>
<!-- &#45;20&#45;&gt;control -->
<g id="edge22" class="edge">
<title>&#45;20&#45;&gt;control</title>
<path fill="none" stroke="red" stroke-width="0.25" stroke-dasharray="1,5" d="M443.51,-185.71C438.47,-164.59 424.92,-107.83 415.69,-69.19"/>
<polygon fill="red" stroke="red" stroke-width="0.25" points="419.14,-68.58 413.42,-59.67 412.34,-70.21 419.14,-68.58"/>
</g>
<!-- &#45;20&#45;&gt;1 -->
<g id="edge5" class="edge">
<title>&#45;20&#45;&gt;1</title>
<path fill="none" stroke="red" stroke-width="0.16" d="M437.61,-185.68C433.43,-181.64 428.03,-177 422.5,-173.82 375.11,-146.57 312.53,-130.06 278.7,-122.51"/>
<polygon fill="red" stroke="red" stroke-width="0.16" points="279.54,-119.12 269.03,-120.43 278.07,-125.96 279.54,-119.12"/>
</g>
<!-- &#45;20&#45;&gt;113 -->
<g id="edge17" class="edge">
<title>&#45;20&#45;&gt;113</title>
<path fill="none" stroke="green" stroke-width="0.2" d="M451.82,-185.57C459.55,-175.2 472.97,-157.21 484.06,-142.33"/>
<polygon fill="green" stroke="green" stroke-width="0.2" points="486.58,-144.82 489.75,-134.71 480.96,-140.63 486.58,-144.82"/>
</g>
<!-- 113&#45;&gt;control -->
<g id="edge20" class="edge">
<title>113&#45;&gt;control</title>
<path fill="none" stroke="green" stroke-width="0.65" d="M486.65,-101.59C473.01,-89.53 452.96,-71.79 436.33,-57.08"/>
<polygon fill="green" stroke="green" stroke-width="0.65" points="439.03,-54.79 429.22,-50.79 434.39,-60.04 439.03,-54.79"/>
</g>
<!-- 273&#45;&gt;control -->
<g id="edge27" class="edge">
<title>273&#45;&gt;control</title>
<path fill="none" stroke="red" stroke-width="0.35" d="M57.27,-102.59C61.42,-99.87 65.97,-97.27 70.5,-95.4 171.93,-53.52 301.92,-38.39 366.45,-33.21"/>
<polygon fill="red" stroke="red" stroke-width="0.35" points="366.36,-36.73 376.07,-32.48 365.83,-29.75 366.36,-36.73"/>
</g>
<!-- 185&#45;&gt;113 -->
<g id="edge31" class="edge">
<title>185&#45;&gt;113</title>
<path fill="none" stroke="red" stroke-width="0.11" d="M528.85,-175.14C524.77,-166.23 519.82,-155.42 515.31,-145.59"/>
<polygon fill="red" stroke="red" stroke-width="0.11" points="518.59,-144.33 511.24,-136.7 512.22,-147.25 518.59,-144.33"/>
</g>
</g>
</svg>
