<?xml version="1.0" encoding="UTF-8" standalone="no"?>
<!DOCTYPE svg PUBLIC "-//W3C//DTD SVG 1.1//EN"
 "http://www.w3.org/Graphics/SVG/1.1/DTD/svg11.dtd">
<!-- Generated by graphviz version 7.1.0 (20230121.1956)
 -->
<!-- Pages: 1 -->
<svg width="756pt" height="278pt"
 viewBox="0.00 0.00 755.71 278.25" xmlns="http://www.w3.org/2000/svg" xmlns:xlink="http://www.w3.org/1999/xlink">
<g id="graph0" class="graph" transform="scale(1 1) rotate(0) translate(4 274.25)">
<polygon fill="white" stroke="none" points="-4,4 -4,-274.25 751.71,-274.25 751.71,4 -4,4"/>
<!-- x -->
<g id="node1" class="node">
<title>x</title>
<polygon fill="lightgray" stroke="black" points="357.5,-125.61 337.5,-125.61 337.5,-107.61 357.5,-107.61 357.5,-125.61"/>
<text text-anchor="middle" x="347.5" y="-114.41" font-family="Times New Roman,serif" font-size="9.00">x</text>
</g>
<!-- control -->
<g id="node21" class="node">
<title>control</title>
<ellipse fill="lightblue" stroke="black" cx="284.5" cy="-29.7" rx="29.9" ry="29.9"/>
<text text-anchor="middle" x="284.5" y="-27.5" font-family="Times New Roman,serif" font-size="9.00">control</text>
</g>
<!-- x&#45;&gt;control -->
<g id="edge3" class="edge">
<title>x&#45;&gt;control</title>
<path fill="none" stroke="red" stroke-width="0.84" d="M341.23,-107.16C333.56,-96.82 320.14,-78.73 308.27,-62.74"/>
<polygon fill="red" stroke="red" stroke-width="0.84" points="311.41,-61.1 302.64,-55.15 305.79,-65.27 311.41,-61.1"/>
</g>
<!-- dx -->
<g id="node2" class="node">
<title>dx</title>
<polygon fill="lightgray" stroke="black" points="546,-204.04 521,-204.04 521,-186.04 546,-186.04 546,-204.04"/>
<text text-anchor="middle" x="533.5" y="-192.84" font-family="Times New Roman,serif" font-size="9.00">dx</text>
</g>
<!-- 1 -->
<g id="node22" class="node">
<title>1</title>
<ellipse fill="lightblue" stroke="black" cx="533.5" cy="-116.61" rx="14.7" ry="14.7"/>
<text text-anchor="middle" x="533.5" y="-114.41" font-family="Times New Roman,serif" font-size="9.00">1</text>
</g>
<!-- dx&#45;&gt;1 -->
<g id="edge10" class="edge">
<title>dx&#45;&gt;1</title>
<path fill="none" stroke="green" stroke-width="0.55" d="M533.5,-185.57C533.5,-175.16 533.5,-157.05 533.5,-142.15"/>
<polygon fill="green" stroke="green" stroke-width="0.55" points="537,-142.39 533.5,-132.39 530,-142.39 537,-142.39"/>
</g>
<!-- theta -->
<g id="node3" class="node">
<title>theta</title>
<polygon fill="lightgray" stroke="black" points="599,-204.04 564,-204.04 564,-186.04 599,-186.04 599,-204.04"/>
<text text-anchor="middle" x="581.5" y="-192.84" font-family="Times New Roman,serif" font-size="9.00">theta</text>
</g>
<!-- theta&#45;&gt;1 -->
<g id="edge12" class="edge">
<title>theta&#45;&gt;1</title>
<path fill="none" stroke="green" stroke-width="0.25" d="M576.18,-185.57C569.04,-174.19 556.12,-153.63 546.36,-138.09"/>
<polygon fill="green" stroke="green" stroke-width="0.25" points="549.54,-136.56 541.25,-129.95 543.61,-140.28 549.54,-136.56"/>
</g>
<!-- dtheta -->
<g id="node4" class="node">
<title>dtheta</title>
<polygon fill="lightgray" stroke="black" points="746,-204.04 707,-204.04 707,-186.04 746,-186.04 746,-204.04"/>
<text text-anchor="middle" x="726.5" y="-192.84" font-family="Times New Roman,serif" font-size="9.00">dtheta</text>
</g>
<!-- dtheta&#45;&gt;1 -->
<g id="edge2" class="edge">
<title>dtheta&#45;&gt;1</title>
<path fill="none" stroke="red" stroke-width="0.26" d="M716.34,-185.58C711.23,-181.62 704.79,-177.07 698.5,-173.82 650.95,-149.26 590.35,-131.81 557.42,-123.36"/>
<polygon fill="red" stroke="red" stroke-width="0.26" points="558.7,-120.07 548.15,-121.04 556.99,-126.86 558.7,-120.07"/>
</g>
<!-- 562 -->
<g id="node26" class="node">
<title>562</title>
<ellipse fill="none" stroke="black" cx="726.5" cy="-116.61" rx="21.43" ry="21.43"/>
<text text-anchor="middle" x="726.5" y="-114.41" font-family="Times New Roman,serif" font-size="9.00">562</text>
</g>
<!-- dtheta&#45;&gt;562 -->
<g id="edge24" class="edge">
<title>dtheta&#45;&gt;562</title>
<path fill="none" stroke="green" stroke-width="0.15" d="M726.5,-185.57C726.5,-176.58 726.5,-161.87 726.5,-148.42"/>
<polygon fill="green" stroke="green" stroke-width="0.15" points="730,-148.73 726.5,-138.73 723,-148.73 730,-148.73"/>
</g>
<!-- &#45;5 -->
<g id="node5" class="node">
<title>&#45;5</title>
<polygon fill="lightgray" stroke="black" points="641.5,-204.04 617.5,-204.04 617.5,-186.04 641.5,-186.04 641.5,-204.04"/>
<text text-anchor="middle" x="629.5" y="-192.84" font-family="Times New Roman,serif" font-size="9.00">&#45;5</text>
</g>
<!-- &#45;5&#45;&gt;1 -->
<g id="edge9" class="edge">
<title>&#45;5&#45;&gt;1</title>
<path fill="none" stroke="green" stroke-width="0.31" d="M621.54,-185.92C617.7,-182.13 612.97,-177.63 608.5,-173.82 590.57,-158.58 568.97,-142.62 553.56,-131.62"/>
<polygon fill="green" stroke="green" stroke-width="0.31" points="555.84,-128.94 545.66,-126.02 551.8,-134.66 555.84,-128.94"/>
</g>
<!-- &#45;6 -->
<g id="node6" class="node">
<title>&#45;6</title>
<polygon fill="lightgray" stroke="black" points="266.5,-270.25 242.5,-270.25 242.5,-252.25 266.5,-252.25 266.5,-270.25"/>
<text text-anchor="middle" x="254.5" y="-259.05" font-family="Times New Roman,serif" font-size="9.00">&#45;6</text>
</g>
<!-- &#45;7 -->
<g id="node7" class="node">
<title>&#45;7</title>
<polygon fill="lightgray" stroke="black" points="272.5,-204.04 248.5,-204.04 248.5,-186.04 272.5,-186.04 272.5,-204.04"/>
<text text-anchor="middle" x="260.5" y="-192.84" font-family="Times New Roman,serif" font-size="9.00">&#45;7</text>
</g>
<!-- 113 -->
<g id="node25" class="node">
<title>113</title>
<ellipse fill="white" stroke="black" cx="260.5" cy="-116.61" rx="21.43" ry="21.43"/>
<text text-anchor="middle" x="260.5" y="-114.41" font-family="Times New Roman,serif" font-size="9.00">113</text>
</g>
<!-- &#45;7&#45;&gt;113 -->
<g id="edge6" class="edge">
<title>&#45;7&#45;&gt;113</title>
<path fill="none" stroke="red" stroke-width="0.15" d="M260.5,-185.57C260.5,-176.58 260.5,-161.87 260.5,-148.42"/>
<polygon fill="red" stroke="red" stroke-width="0.15" points="264,-148.72 260.5,-138.72 257,-148.72 264,-148.72"/>
</g>
<!-- &#45;8 -->
<g id="node8" class="node">
<title>&#45;8</title>
<polygon fill="lightgray" stroke="black" points="308.5,-270.25 284.5,-270.25 284.5,-252.25 308.5,-252.25 308.5,-270.25"/>
<text text-anchor="middle" x="296.5" y="-259.05" font-family="Times New Roman,serif" font-size="9.00">&#45;8</text>
</g>
<!-- &#45;9 -->
<g id="node9" class="node">
<title>&#45;9</title>
<polygon fill="lightgray" stroke="black" points="314.5,-204.04 290.5,-204.04 290.5,-186.04 314.5,-186.04 314.5,-204.04"/>
<text text-anchor="middle" x="302.5" y="-192.84" font-family="Times New Roman,serif" font-size="9.00">&#45;9</text>
</g>
<!-- &#45;9&#45;&gt;113 -->
<g id="edge5" class="edge">
<title>&#45;9&#45;&gt;113</title>
<path fill="none" stroke="red" stroke-width="0.33" d="M297.84,-185.57C292.48,-175.81 283.4,-159.29 275.54,-144.98"/>
<polygon fill="red" stroke="red" stroke-width="0.33" points="278.72,-143.5 270.84,-136.43 272.59,-146.88 278.72,-143.5"/>
</g>
<!-- &#45;10 -->
<g id="node10" class="node">
<title>&#45;10</title>
<polygon fill="lightgray" stroke="black" points="362,-204.04 333,-204.04 333,-186.04 362,-186.04 362,-204.04"/>
<text text-anchor="middle" x="347.5" y="-192.84" font-family="Times New Roman,serif" font-size="9.00">&#45;10</text>
</g>
<!-- &#45;10&#45;&gt;control -->
<g id="edge21" class="edge">
<title>&#45;10&#45;&gt;control</title>
<path fill="none" stroke="green" stroke-width="0.27" d="M344.29,-185.71C336.01,-164.26 313.56,-106.05 298.65,-67.39"/>
<polygon fill="green" stroke="green" stroke-width="0.27" points="302.05,-66.47 295.19,-58.4 295.52,-68.99 302.05,-66.47"/>
</g>
<!-- &#45;10&#45;&gt;1 -->
<g id="edge11" class="edge">
<title>&#45;10&#45;&gt;1</title>
<path fill="none" stroke="green" stroke-width="0.56" d="M355.81,-185.72C360.19,-181.7 365.82,-177.05 371.5,-173.82 416.87,-148.03 476.08,-131.2 508.89,-123.15"/>
<polygon fill="green" stroke="green" stroke-width="0.56" points="509.58,-126.59 518.5,-120.87 507.97,-119.78 509.58,-126.59"/>
</g>
<!-- &#45;10&#45;&gt;113 -->
<g id="edge22" class="edge">
<title>&#45;10&#45;&gt;113</title>
<path fill="none" stroke="green" stroke-width="0.3" d="M337.86,-185.57C324.97,-174.24 301.69,-153.8 284.03,-138.28"/>
<polygon fill="green" stroke="green" stroke-width="0.3" points="286.53,-135.82 276.71,-131.85 281.91,-141.08 286.53,-135.82"/>
</g>
<!-- &#45;11 -->
<g id="node11" class="node">
<title>&#45;11</title>
<polygon fill="lightgray" stroke="black" points="503,-204.04 474,-204.04 474,-186.04 503,-186.04 503,-204.04"/>
<text text-anchor="middle" x="488.5" y="-192.84" font-family="Times New Roman,serif" font-size="9.00">&#45;11</text>
</g>
<!-- &#45;11&#45;&gt;control -->
<g id="edge8" class="edge">
<title>&#45;11&#45;&gt;control</title>
<path fill="none" stroke="red" stroke-width="0.16" d="M479.19,-185.67C475.04,-181.98 470.07,-177.64 465.5,-173.82 413.89,-130.75 352.17,-82.65 315.77,-54.62"/>
<polygon fill="red" stroke="red" stroke-width="0.16" points="318.21,-52.08 308.15,-48.76 313.95,-57.63 318.21,-52.08"/>
</g>
<!-- &#45;11&#45;&gt;1 -->
<g id="edge14" class="edge">
<title>&#45;11&#45;&gt;1</title>
<path fill="none" stroke="green" stroke-width="0.28" d="M493.49,-185.57C500.08,-174.37 511.93,-154.24 521.03,-138.79"/>
<polygon fill="green" stroke="green" stroke-width="0.28" points="523.99,-140.66 526.05,-130.26 517.96,-137.11 523.99,-140.66"/>
</g>
<!-- &#45;12 -->
<g id="node12" class="node">
<title>&#45;12</title>
<polygon fill="lightgray" stroke="black" points="123,-204.04 94,-204.04 94,-186.04 123,-186.04 123,-204.04"/>
<text text-anchor="middle" x="108.5" y="-192.84" font-family="Times New Roman,serif" font-size="9.00">&#45;12</text>
</g>
<!-- &#45;12&#45;&gt;113 -->
<g id="edge19" class="edge">
<title>&#45;12&#45;&gt;113</title>
<path fill="none" stroke="red" stroke-width="0.75" d="M116.52,-185.88C120.73,-181.9 126.12,-177.24 131.5,-173.82 163.03,-153.79 202.93,-137.63 229.94,-127.87"/>
<polygon fill="red" stroke="red" stroke-width="0.75" points="230.99,-131.21 239.25,-124.58 228.65,-124.61 230.99,-131.21"/>
</g>
<!-- &#45;13 -->
<g id="node13" class="node">
<title>&#45;13</title>
<polygon fill="lightgray" stroke="black" points="224,-270.25 195,-270.25 195,-252.25 224,-252.25 224,-270.25"/>
<text text-anchor="middle" x="209.5" y="-259.05" font-family="Times New Roman,serif" font-size="9.00">&#45;13</text>
</g>
<!-- 185 -->
<g id="node24" class="node">
<title>185</title>
<ellipse fill="white" stroke="black" cx="209.5" cy="-195.04" rx="21.43" ry="21.43"/>
<text text-anchor="middle" x="209.5" y="-192.84" font-family="Times New Roman,serif" font-size="9.00">185</text>
</g>
<!-- &#45;13&#45;&gt;185 -->
<g id="edge26" class="edge">
<title>&#45;13&#45;&gt;185</title>
<path fill="none" stroke="green" stroke-width="0.49" d="M209.5,-251.86C209.5,-245.57 209.5,-236.55 209.5,-227.59"/>
<polygon fill="green" stroke="green" stroke-width="0.49" points="213,-227.61 209.5,-217.61 206,-227.61 213,-227.61"/>
</g>
<!-- &#45;14 -->
<g id="node14" class="node">
<title>&#45;14</title>
<polygon fill="lightgray" stroke="black" points="170,-204.04 141,-204.04 141,-186.04 170,-186.04 170,-204.04"/>
<text text-anchor="middle" x="155.5" y="-192.84" font-family="Times New Roman,serif" font-size="9.00">&#45;14</text>
</g>
<!-- &#45;14&#45;&gt;113 -->
<g id="edge20" class="edge">
<title>&#45;14&#45;&gt;113</title>
<path fill="none" stroke="red" stroke-width="0.45" d="M165.14,-185.57C169.46,-181.86 174.66,-177.53 179.5,-173.82 197.23,-160.26 217.91,-145.92 233.94,-135.13"/>
<polygon fill="red" stroke="red" stroke-width="0.45" points="235.85,-138.06 242.22,-129.59 231.96,-132.24 235.85,-138.06"/>
</g>
<!-- &#45;15 -->
<g id="node15" class="node">
<title>&#45;15</title>
<polygon fill="lightgray" stroke="black" points="29,-204.04 0,-204.04 0,-186.04 29,-186.04 29,-204.04"/>
<text text-anchor="middle" x="14.5" y="-192.84" font-family="Times New Roman,serif" font-size="9.00">&#45;15</text>
</g>
<!-- 273 -->
<g id="node23" class="node">
<title>273</title>
<ellipse fill="white" stroke="black" cx="51.5" cy="-116.61" rx="21.43" ry="21.43"/>
<text text-anchor="middle" x="51.5" y="-114.41" font-family="Times New Roman,serif" font-size="9.00">273</text>
</g>
<!-- &#45;15&#45;&gt;273 -->
<g id="edge25" class="edge">
<title>&#45;15&#45;&gt;273</title>
<path fill="none" stroke="red" stroke-width="0.32" d="M18.6,-185.57C23.25,-175.97 31.07,-159.81 37.92,-145.66"/>
<polygon fill="red" stroke="red" stroke-width="0.32" points="41.04,-147.26 42.24,-136.73 34.74,-144.21 41.04,-147.26"/>
</g>
<!-- &#45;16 -->
<g id="node16" class="node">
<title>&#45;16</title>
<polygon fill="lightgray" stroke="black" points="76,-204.04 47,-204.04 47,-186.04 76,-186.04 76,-204.04"/>
<text text-anchor="middle" x="61.5" y="-192.84" font-family="Times New Roman,serif" font-size="9.00">&#45;16</text>
</g>
<!-- &#45;16&#45;&gt;control -->
<g id="edge1" class="edge">
<title>&#45;16&#45;&gt;control</title>
<path fill="none" stroke="red" stroke-width="0.11" d="M70.72,-185.56C74.85,-181.86 79.84,-177.53 84.5,-173.82 141.51,-128.56 211.29,-80.1 251.55,-52.79"/>
<polygon fill="red" stroke="red" stroke-width="0.11" points="253.46,-55.72 259.78,-47.22 249.53,-49.92 253.46,-55.72"/>
</g>
<!-- &#45;16&#45;&gt;113 -->
<g id="edge13" class="edge">
<title>&#45;16&#45;&gt;113</title>
<path fill="none" stroke="red" stroke-width="0.15" d="M69.38,-185.64C73.55,-181.6 78.95,-176.97 84.5,-173.82 97.41,-166.52 183.51,-140.43 230.32,-126.51"/>
<polygon fill="red" stroke="red" stroke-width="0.15" points="231.14,-129.92 239.73,-123.72 229.15,-123.21 231.14,-129.92"/>
</g>
<!-- &#45;17 -->
<g id="node17" class="node">
<title>&#45;17</title>
<polygon fill="lightgray" stroke="black" points="456,-204.04 427,-204.04 427,-186.04 456,-186.04 456,-204.04"/>
<text text-anchor="middle" x="441.5" y="-192.84" font-family="Times New Roman,serif" font-size="9.00">&#45;17</text>
</g>
<!-- &#45;17&#45;&gt;1 -->
<g id="edge7" class="edge">
<title>&#45;17&#45;&gt;1</title>
<path fill="none" stroke="red" stroke-width="0.65" d="M451.29,-185.76C455.64,-182.09 460.82,-177.73 465.5,-173.82 481.9,-160.14 500.61,-144.68 514.25,-133.45"/>
<polygon fill="red" stroke="red" stroke-width="0.65" points="516.14,-136.42 521.64,-127.36 511.7,-131.01 516.14,-136.42"/>
</g>
<!-- &#45;17&#45;&gt;113 -->
<g id="edge16" class="edge">
<title>&#45;17&#45;&gt;113</title>
<path fill="none" stroke="red" stroke-width="0.16" d="M433.58,-185.72C429.4,-181.7 424,-177.06 418.5,-173.82 396.39,-160.83 329.89,-139.1 290.56,-126.81"/>
<polygon fill="red" stroke="red" stroke-width="0.16" points="291.77,-123.52 281.19,-123.9 289.7,-130.21 291.77,-123.52"/>
</g>
<!-- &#45;18 -->
<g id="node18" class="node">
<title>&#45;18</title>
<polygon fill="lightgray" stroke="black" points="356,-270.25 327,-270.25 327,-252.25 356,-252.25 356,-270.25"/>
<text text-anchor="middle" x="341.5" y="-259.05" font-family="Times New Roman,serif" font-size="9.00">&#45;18</text>
</g>
<!-- &#45;19 -->
<g id="node19" class="node">
<title>&#45;19</title>
<polygon fill="lightgray" stroke="black" points="689,-204.04 660,-204.04 660,-186.04 689,-186.04 689,-204.04"/>
<text text-anchor="middle" x="674.5" y="-192.84" font-family="Times New Roman,serif" font-size="9.00">&#45;19</text>
</g>
<!-- &#45;19&#45;&gt;1 -->
<g id="edge17" class="edge">
<title>&#45;19&#45;&gt;1</title>
<path fill="none" stroke="red" stroke-width="0.16" d="M665.58,-185.59C661.23,-181.73 655.81,-177.25 650.5,-173.82 619.7,-153.91 580.77,-136.6 556.5,-126.63"/>
<polygon fill="red" stroke="red" stroke-width="0.16" points="557.87,-123.4 547.29,-122.91 555.25,-129.89 557.87,-123.4"/>
</g>
<!-- &#45;20 -->
<g id="node20" class="node">
<title>&#45;20</title>
<polygon fill="lightgray" stroke="black" points="409,-204.04 380,-204.04 380,-186.04 409,-186.04 409,-204.04"/>
<text text-anchor="middle" x="394.5" y="-192.84" font-family="Times New Roman,serif" font-size="9.00">&#45;20</text>
</g>
<!-- &#45;20&#45;&gt;1 -->
<g id="edge4" class="edge">
<title>&#45;20&#45;&gt;1</title>
<path fill="none" stroke="red" stroke-width="0.16" d="M403.43,-185.61C407.78,-181.75 413.2,-177.27 418.5,-173.82 448.64,-154.19 486.65,-136.91 510.52,-126.86"/>
<polygon fill="red" stroke="red" stroke-width="0.16" points="511.69,-130.16 519.59,-123.1 509.01,-123.69 511.69,-130.16"/>
</g>
<!-- &#45;20&#45;&gt;113 -->
<g id="edge15" class="edge">
<title>&#45;20&#45;&gt;113</title>
<path fill="none" stroke="green" stroke-width="0.2" d="M385.97,-185.61C381.81,-181.75 376.61,-177.28 371.5,-173.82 345.2,-156.03 312.51,-140.13 289.43,-129.83"/>
<polygon fill="green" stroke="green" stroke-width="0.2" points="291.02,-126.7 280.46,-125.88 288.2,-133.11 291.02,-126.7"/>
</g>
<!-- 273&#45;&gt;control -->
<g id="edge23" class="edge">
<title>273&#45;&gt;control</title>
<path fill="none" stroke="red" stroke-width="0.35" d="M71.37,-108.37C110.18,-94.23 196.66,-62.71 246.71,-44.47"/>
<polygon fill="red" stroke="red" stroke-width="0.35" points="247.82,-47.79 256.01,-41.08 245.42,-41.22 247.82,-47.79"/>
</g>
<!-- 185&#45;&gt;113 -->
<g id="edge27" class="edge">
<title>185&#45;&gt;113</title>
<path fill="none" stroke="red" stroke-width="0.11" d="M221.07,-176.69C227.61,-166.89 235.91,-154.45 243.21,-143.52"/>
<polygon fill="red" stroke="red" stroke-width="0.11" points="246.07,-145.55 248.7,-135.29 240.24,-141.66 246.07,-145.55"/>
</g>
<!-- 113&#45;&gt;control -->
<g id="edge18" class="edge">
<title>113&#45;&gt;control</title>
<path fill="none" stroke="green" stroke-width="0.65" d="M266.19,-95.49C268.42,-87.59 271.06,-78.26 273.63,-69.16"/>
<polygon fill="green" stroke="green" stroke-width="0.65" points="276.97,-70.22 276.32,-59.65 270.23,-68.32 276.97,-70.22"/>
</g>
</g>
</svg>
