<?xml version="1.0" encoding="UTF-8" standalone="no"?>
<!DOCTYPE svg PUBLIC "-//W3C//DTD SVG 1.1//EN"
 "http://www.w3.org/Graphics/SVG/1.1/DTD/svg11.dtd">
<!-- Generated by graphviz version 7.1.0 (20230121.1956)
 -->
<!-- Pages: 1 -->
<svg width="756pt" height="278pt"
 viewBox="0.00 0.00 755.71 278.25" xmlns="http://www.w3.org/2000/svg" xmlns:xlink="http://www.w3.org/1999/xlink">
<g id="graph0" class="graph" transform="scale(1 1) rotate(0) translate(4 274.25)">
<polygon fill="white" stroke="none" points="-4,4 -4,-274.25 751.71,-274.25 751.71,4 -4,4"/>
<!-- x -->
<g id="node1" class="node">
<title>x</title>
<polygon fill="lightgray" stroke="black" points="216.5,-125.61 196.5,-125.61 196.5,-107.61 216.5,-107.61 216.5,-125.61"/>
<text text-anchor="middle" x="206.5" y="-114.41" font-family="Times New Roman,serif" font-size="9.00">x</text>
</g>
<!-- control -->
<g id="node21" class="node">
<title>control</title>
<ellipse fill="lightblue" stroke="black" cx="230.5" cy="-29.7" rx="29.9" ry="29.9"/>
<text text-anchor="middle" x="230.5" y="-27.5" font-family="Times New Roman,serif" font-size="9.00">control</text>
</g>
<!-- x&#45;&gt;control -->
<g id="edge3" class="edge">
<title>x&#45;&gt;control</title>
<path fill="none" stroke="red" stroke-width="0.84" d="M208.89,-107.16C211.4,-98.27 215.54,-83.63 219.52,-69.53"/>
<polygon fill="red" stroke="red" stroke-width="0.84" points="222.81,-70.76 222.17,-60.18 216.08,-68.85 222.81,-70.76"/>
</g>
<!-- dx -->
<g id="node2" class="node">
<title>dx</title>
<polygon fill="lightgray" stroke="black" points="546,-204.04 521,-204.04 521,-186.04 546,-186.04 546,-204.04"/>
<text text-anchor="middle" x="533.5" y="-192.84" font-family="Times New Roman,serif" font-size="9.00">dx</text>
</g>
<!-- 1 -->
<g id="node22" class="node">
<title>1</title>
<ellipse fill="lightblue" stroke="black" cx="533.5" cy="-116.61" rx="14.7" ry="14.7"/>
<text text-anchor="middle" x="533.5" y="-114.41" font-family="Times New Roman,serif" font-size="9.00">1</text>
</g>
<!-- dx&#45;&gt;1 -->
<g id="edge10" class="edge">
<title>dx&#45;&gt;1</title>
<path fill="none" stroke="green" stroke-width="0.55" d="M533.5,-185.57C533.5,-175.16 533.5,-157.05 533.5,-142.15"/>
<polygon fill="green" stroke="green" stroke-width="0.55" points="537,-142.39 533.5,-132.39 530,-142.39 537,-142.39"/>
</g>
<!-- theta -->
<g id="node3" class="node">
<title>theta</title>
<polygon fill="lightgray" stroke="black" points="599,-204.04 564,-204.04 564,-186.04 599,-186.04 599,-204.04"/>
<text text-anchor="middle" x="581.5" y="-192.84" font-family="Times New Roman,serif" font-size="9.00">theta</text>
</g>
<!-- theta&#45;&gt;1 -->
<g id="edge12" class="edge">
<title>theta&#45;&gt;1</title>
<path fill="none" stroke="green" stroke-width="0.25" d="M576.18,-185.57C569.04,-174.19 556.12,-153.63 546.36,-138.09"/>
<polygon fill="green" stroke="green" stroke-width="0.25" points="549.54,-136.56 541.25,-129.95 543.61,-140.28 549.54,-136.56"/>
</g>
<!-- dtheta -->
<g id="node4" class="node">
<title>dtheta</title>
<polygon fill="lightgray" stroke="black" points="746,-204.04 707,-204.04 707,-186.04 746,-186.04 746,-204.04"/>
<text text-anchor="middle" x="726.5" y="-192.84" font-family="Times New Roman,serif" font-size="9.00">dtheta</text>
</g>
<!-- dtheta&#45;&gt;1 -->
<g id="edge2" class="edge">
<title>dtheta&#45;&gt;1</title>
<path fill="none" stroke="red" stroke-width="0.26" d="M716.34,-185.58C711.23,-181.62 704.79,-177.07 698.5,-173.82 650.95,-149.26 590.35,-131.81 557.42,-123.36"/>
<polygon fill="red" stroke="red" stroke-width="0.26" points="558.7,-120.07 548.15,-121.04 556.99,-126.86 558.7,-120.07"/>
</g>
<!-- 562 -->
<g id="node24" class="node">
<title>562</title>
<ellipse fill="white" stroke="black" cx="726.5" cy="-116.61" rx="21.43" ry="21.43"/>
<text text-anchor="middle" x="726.5" y="-114.41" font-family="Times New Roman,serif" font-size="9.00">562</text>
</g>
<!-- dtheta&#45;&gt;562 -->
<g id="edge24" class="edge">
<title>dtheta&#45;&gt;562</title>
<path fill="none" stroke="green" stroke-width="0.15" d="M726.5,-185.57C726.5,-176.58 726.5,-161.87 726.5,-148.42"/>
<polygon fill="green" stroke="green" stroke-width="0.15" points="730,-148.73 726.5,-138.73 723,-148.73 730,-148.73"/>
</g>
<!-- &#45;5 -->
<g id="node5" class="node">
<title>&#45;5</title>
<polygon fill="lightgray" stroke="black" points="641.5,-204.04 617.5,-204.04 617.5,-186.04 641.5,-186.04 641.5,-204.04"/>
<text text-anchor="middle" x="629.5" y="-192.84" font-family="Times New Roman,serif" font-size="9.00">&#45;5</text>
</g>
<!-- &#45;5&#45;&gt;1 -->
<g id="edge9" class="edge">
<title>&#45;5&#45;&gt;1</title>
<path fill="none" stroke="green" stroke-width="0.31" d="M621.54,-185.92C617.7,-182.13 612.97,-177.63 608.5,-173.82 590.57,-158.58 568.97,-142.62 553.56,-131.62"/>
<polygon fill="green" stroke="green" stroke-width="0.31" points="555.84,-128.94 545.66,-126.02 551.8,-134.66 555.84,-128.94"/>
</g>
<!-- &#45;6 -->
<g id="node6" class="node">
<title>&#45;6</title>
<polygon fill="lightgray" stroke="black" points="219.5,-270.25 195.5,-270.25 195.5,-252.25 219.5,-252.25 219.5,-270.25"/>
<text text-anchor="middle" x="207.5" y="-259.05" font-family="Times New Roman,serif" font-size="9.00">&#45;6</text>
</g>
<!-- &#45;7 -->
<g id="node7" class="node">
<title>&#45;7</title>
<polygon fill="lightgray" stroke="black" points="225.5,-204.04 201.5,-204.04 201.5,-186.04 225.5,-186.04 225.5,-204.04"/>
<text text-anchor="middle" x="213.5" y="-192.84" font-family="Times New Roman,serif" font-size="9.00">&#45;7</text>
</g>
<!-- 113 -->
<g id="node23" class="node">
<title>113</title>
<ellipse fill="white" stroke="black" cx="255.5" cy="-116.61" rx="21.43" ry="21.43"/>
<text text-anchor="middle" x="255.5" y="-114.41" font-family="Times New Roman,serif" font-size="9.00">113</text>
</g>
<!-- &#45;7&#45;&gt;113 -->
<g id="edge6" class="edge">
<title>&#45;7&#45;&gt;113</title>
<path fill="none" stroke="red" stroke-width="0.15" d="M218.16,-185.57C223.57,-175.72 232.77,-158.97 240.69,-144.57"/>
<polygon fill="red" stroke="red" stroke-width="0.15" points="243.55,-146.63 245.3,-136.18 237.41,-143.26 243.55,-146.63"/>
</g>
<!-- &#45;8 -->
<g id="node8" class="node">
<title>&#45;8</title>
<polygon fill="lightgray" stroke="black" points="261.5,-270.25 237.5,-270.25 237.5,-252.25 261.5,-252.25 261.5,-270.25"/>
<text text-anchor="middle" x="249.5" y="-259.05" font-family="Times New Roman,serif" font-size="9.00">&#45;8</text>
</g>
<!-- &#45;9 -->
<g id="node9" class="node">
<title>&#45;9</title>
<polygon fill="lightgray" stroke="black" points="267.5,-204.04 243.5,-204.04 243.5,-186.04 267.5,-186.04 267.5,-204.04"/>
<text text-anchor="middle" x="255.5" y="-192.84" font-family="Times New Roman,serif" font-size="9.00">&#45;9</text>
</g>
<!-- &#45;9&#45;&gt;113 -->
<g id="edge5" class="edge">
<title>&#45;9&#45;&gt;113</title>
<path fill="none" stroke="red" stroke-width="0.33" d="M255.5,-185.57C255.5,-176.67 255.5,-162.15 255.5,-148.82"/>
<polygon fill="red" stroke="red" stroke-width="0.33" points="259,-149.01 255.5,-139.01 252,-149.01 259,-149.01"/>
</g>
<!-- &#45;10 -->
<g id="node10" class="node">
<title>&#45;10</title>
<polygon fill="lightgray" stroke="black" points="362,-204.04 333,-204.04 333,-186.04 362,-186.04 362,-204.04"/>
<text text-anchor="middle" x="347.5" y="-192.84" font-family="Times New Roman,serif" font-size="9.00">&#45;10</text>
</g>
<!-- &#45;10&#45;&gt;control -->
<g id="edge21" class="edge">
<title>&#45;10&#45;&gt;control</title>
<path fill="none" stroke="green" stroke-width="0.27" d="M342.74,-185.59C332.83,-168.2 308.95,-127.36 285.5,-95.4 276.73,-83.44 266.36,-70.89 257,-60.06"/>
<polygon fill="green" stroke="green" stroke-width="0.27" points="259.89,-58.05 250.68,-52.82 254.62,-62.66 259.89,-58.05"/>
</g>
<!-- &#45;10&#45;&gt;1 -->
<g id="edge11" class="edge">
<title>&#45;10&#45;&gt;1</title>
<path fill="none" stroke="green" stroke-width="0.56" d="M355.81,-185.72C360.19,-181.7 365.82,-177.05 371.5,-173.82 416.87,-148.03 476.08,-131.2 508.89,-123.15"/>
<polygon fill="green" stroke="green" stroke-width="0.56" points="509.58,-126.59 518.5,-120.87 507.97,-119.78 509.58,-126.59"/>
</g>
<!-- &#45;10&#45;&gt;113 -->
<g id="edge22" class="edge">
<title>&#45;10&#45;&gt;113</title>
<path fill="none" stroke="green" stroke-width="0.3" d="M338.17,-185.7C334.02,-182.02 329.04,-177.67 324.5,-173.82 309.85,-161.42 293.17,-147.82 279.88,-137.11"/>
<polygon fill="green" stroke="green" stroke-width="0.3" points="282.43,-134.66 272.44,-131.12 278.04,-140.12 282.43,-134.66"/>
</g>
<!-- &#45;11 -->
<g id="node11" class="node">
<title>&#45;11</title>
<polygon fill="lightgray" stroke="black" points="503,-204.04 474,-204.04 474,-186.04 503,-186.04 503,-204.04"/>
<text text-anchor="middle" x="488.5" y="-192.84" font-family="Times New Roman,serif" font-size="9.00">&#45;11</text>
</g>
<!-- &#45;11&#45;&gt;control -->
<g id="edge8" class="edge">
<title>&#45;11&#45;&gt;control</title>
<path fill="none" stroke="red" stroke-width="0.16" d="M479.84,-185.79C475.66,-181.97 470.47,-177.48 465.5,-173.82 398.03,-124.21 312.76,-75.43 265.71,-49.61"/>
<polygon fill="red" stroke="red" stroke-width="0.16" points="267.5,-46.59 257.04,-44.87 264.14,-52.74 267.5,-46.59"/>
</g>
<!-- &#45;11&#45;&gt;1 -->
<g id="edge14" class="edge">
<title>&#45;11&#45;&gt;1</title>
<path fill="none" stroke="green" stroke-width="0.28" d="M493.49,-185.57C500.08,-174.37 511.93,-154.24 521.03,-138.79"/>
<polygon fill="green" stroke="green" stroke-width="0.28" points="523.99,-140.66 526.05,-130.26 517.96,-137.11 523.99,-140.66"/>
</g>
<!-- &#45;12 -->
<g id="node12" class="node">
<title>&#45;12</title>
<polygon fill="lightgray" stroke="black" points="315,-204.04 286,-204.04 286,-186.04 315,-186.04 315,-204.04"/>
<text text-anchor="middle" x="300.5" y="-192.84" font-family="Times New Roman,serif" font-size="9.00">&#45;12</text>
</g>
<!-- &#45;12&#45;&gt;113 -->
<g id="edge19" class="edge">
<title>&#45;12&#45;&gt;113</title>
<path fill="none" stroke="red" stroke-width="0.75" d="M295.51,-185.57C289.79,-175.84 280.1,-159.39 271.69,-145.11"/>
<polygon fill="red" stroke="red" stroke-width="0.75" points="274.8,-143.49 266.71,-136.65 268.77,-147.05 274.8,-143.49"/>
</g>
<!-- &#45;13 -->
<g id="node13" class="node">
<title>&#45;13</title>
<polygon fill="lightgray" stroke="black" points="177,-270.25 148,-270.25 148,-252.25 177,-252.25 177,-270.25"/>
<text text-anchor="middle" x="162.5" y="-259.05" font-family="Times New Roman,serif" font-size="9.00">&#45;13</text>
</g>
<!-- 185 -->
<g id="node26" class="node">
<title>185</title>
<ellipse fill="white" stroke="black" cx="162.5" cy="-195.04" rx="21.43" ry="21.43"/>
<text text-anchor="middle" x="162.5" y="-192.84" font-family="Times New Roman,serif" font-size="9.00">185</text>
</g>
<!-- &#45;13&#45;&gt;185 -->
<g id="edge26" class="edge">
<title>&#45;13&#45;&gt;185</title>
<path fill="none" stroke="green" stroke-width="0.49" d="M162.5,-251.86C162.5,-245.57 162.5,-236.55 162.5,-227.59"/>
<polygon fill="green" stroke="green" stroke-width="0.49" points="166,-227.61 162.5,-217.61 159,-227.61 166,-227.61"/>
</g>
<!-- &#45;14 -->
<g id="node14" class="node">
<title>&#45;14</title>
<polygon fill="lightgray" stroke="black" points="123,-204.04 94,-204.04 94,-186.04 123,-186.04 123,-204.04"/>
<text text-anchor="middle" x="108.5" y="-192.84" font-family="Times New Roman,serif" font-size="9.00">&#45;14</text>
</g>
<!-- &#45;14&#45;&gt;113 -->
<g id="edge20" class="edge">
<title>&#45;14&#45;&gt;113</title>
<path fill="none" stroke="red" stroke-width="0.45" d="M116.86,-185.8C121.25,-181.8 126.88,-177.15 132.5,-173.82 170.64,-151.24 186.21,-158.33 225.5,-137.82 226.86,-137.11 228.23,-136.36 229.6,-135.57"/>
<polygon fill="red" stroke="red" stroke-width="0.45" points="231.24,-138.67 237.88,-130.41 227.54,-132.72 231.24,-138.67"/>
</g>
<!-- &#45;15 -->
<g id="node15" class="node">
<title>&#45;15</title>
<polygon fill="lightgray" stroke="black" points="29,-204.04 0,-204.04 0,-186.04 29,-186.04 29,-204.04"/>
<text text-anchor="middle" x="14.5" y="-192.84" font-family="Times New Roman,serif" font-size="9.00">&#45;15</text>
</g>
<!-- 273 -->
<g id="node25" class="node">
<title>273</title>
<ellipse fill="white" stroke="black" cx="41.5" cy="-116.61" rx="21.43" ry="21.43"/>
<text text-anchor="middle" x="41.5" y="-114.41" font-family="Times New Roman,serif" font-size="9.00">273</text>
</g>
<!-- &#45;15&#45;&gt;273 -->
<g id="edge25" class="edge">
<title>&#45;15&#45;&gt;273</title>
<path fill="none" stroke="red" stroke-width="0.32" d="M17.49,-185.57C20.79,-176.25 26.26,-160.75 31.15,-146.91"/>
<polygon fill="red" stroke="red" stroke-width="0.32" points="34.38,-148.28 34.41,-137.69 27.78,-145.95 34.38,-148.28"/>
</g>
<!-- &#45;16 -->
<g id="node16" class="node">
<title>&#45;16</title>
<polygon fill="lightgray" stroke="black" points="76,-204.04 47,-204.04 47,-186.04 76,-186.04 76,-204.04"/>
<text text-anchor="middle" x="61.5" y="-192.84" font-family="Times New Roman,serif" font-size="9.00">&#45;16</text>
</g>
<!-- &#45;16&#45;&gt;control -->
<g id="edge1" class="edge">
<title>&#45;16&#45;&gt;control</title>
<path fill="none" stroke="red" stroke-width="0.11" d="M70.11,-185.71C94.24,-162.39 163.27,-95.67 202.46,-57.8"/>
<polygon fill="red" stroke="red" stroke-width="0.11" points="204.53,-60.67 209.29,-51.2 199.66,-55.63 204.53,-60.67"/>
</g>
<!-- &#45;16&#45;&gt;113 -->
<g id="edge13" class="edge">
<title>&#45;16&#45;&gt;113</title>
<path fill="none" stroke="red" stroke-width="0.15" d="M68.89,-185.91C73.09,-181.74 78.67,-176.9 84.5,-173.82 141.7,-143.64 166.48,-164.28 225.5,-137.82 227.04,-137.13 228.58,-136.37 230.11,-135.55"/>
<polygon fill="red" stroke="red" stroke-width="0.15" points="231.67,-138.7 238.45,-130.55 228.07,-132.69 231.67,-138.7"/>
</g>
<!-- &#45;17 -->
<g id="node17" class="node">
<title>&#45;17</title>
<polygon fill="lightgray" stroke="black" points="409,-204.04 380,-204.04 380,-186.04 409,-186.04 409,-204.04"/>
<text text-anchor="middle" x="394.5" y="-192.84" font-family="Times New Roman,serif" font-size="9.00">&#45;17</text>
</g>
<!-- &#45;17&#45;&gt;1 -->
<g id="edge7" class="edge">
<title>&#45;17&#45;&gt;1</title>
<path fill="none" stroke="red" stroke-width="0.65" d="M403.43,-185.61C407.78,-181.75 413.2,-177.27 418.5,-173.82 448.37,-154.37 485.97,-137.22 509.88,-127.13"/>
<polygon fill="red" stroke="red" stroke-width="0.65" points="511.01,-130.45 518.91,-123.38 508.33,-123.98 511.01,-130.45"/>
</g>
<!-- &#45;17&#45;&gt;113 -->
<g id="edge16" class="edge">
<title>&#45;17&#45;&gt;113</title>
<path fill="none" stroke="red" stroke-width="0.16" d="M386,-185.57C381.84,-181.7 376.64,-177.23 371.5,-173.82 343.64,-155.33 308.79,-139.27 284.59,-129.11"/>
<polygon fill="red" stroke="red" stroke-width="0.16" points="286.05,-125.92 275.47,-125.35 283.38,-132.39 286.05,-125.92"/>
</g>
<!-- &#45;18 -->
<g id="node18" class="node">
<title>&#45;18</title>
<polygon fill="lightgray" stroke="black" points="309,-270.25 280,-270.25 280,-252.25 309,-252.25 309,-270.25"/>
<text text-anchor="middle" x="294.5" y="-259.05" font-family="Times New Roman,serif" font-size="9.00">&#45;18</text>
</g>
<!-- &#45;19 -->
<g id="node19" class="node">
<title>&#45;19</title>
<polygon fill="lightgray" stroke="black" points="689,-204.04 660,-204.04 660,-186.04 689,-186.04 689,-204.04"/>
<text text-anchor="middle" x="674.5" y="-192.84" font-family="Times New Roman,serif" font-size="9.00">&#45;19</text>
</g>
<!-- &#45;19&#45;&gt;1 -->
<g id="edge17" class="edge">
<title>&#45;19&#45;&gt;1</title>
<path fill="none" stroke="red" stroke-width="0.16" d="M665.58,-185.59C661.23,-181.73 655.81,-177.25 650.5,-173.82 619.7,-153.91 580.77,-136.6 556.5,-126.63"/>
<polygon fill="red" stroke="red" stroke-width="0.16" points="557.87,-123.4 547.29,-122.91 555.25,-129.89 557.87,-123.4"/>
</g>
<!-- &#45;20 -->
<g id="node20" class="node">
<title>&#45;20</title>
<polygon fill="lightgray" stroke="black" points="456,-204.04 427,-204.04 427,-186.04 456,-186.04 456,-204.04"/>
<text text-anchor="middle" x="441.5" y="-192.84" font-family="Times New Roman,serif" font-size="9.00">&#45;20</text>
</g>
<!-- &#45;20&#45;&gt;1 -->
<g id="edge4" class="edge">
<title>&#45;20&#45;&gt;1</title>
<path fill="none" stroke="red" stroke-width="0.16" d="M451.29,-185.76C455.64,-182.09 460.82,-177.73 465.5,-173.82 482.06,-160.01 500.97,-144.39 514.64,-133.13"/>
<polygon fill="red" stroke="red" stroke-width="0.16" points="516.72,-135.95 522.21,-126.89 512.27,-130.54 516.72,-135.95"/>
</g>
<!-- &#45;20&#45;&gt;113 -->
<g id="edge15" class="edge">
<title>&#45;20&#45;&gt;113</title>
<path fill="none" stroke="green" stroke-width="0.2" d="M433.59,-185.7C429.41,-181.67 424.02,-177.03 418.5,-173.82 375.81,-149.01 320.47,-132.84 286.5,-124.47"/>
<polygon fill="green" stroke="green" stroke-width="0.2" points="287.52,-121.11 276.98,-122.19 285.89,-127.92 287.52,-121.11"/>
</g>
<!-- 113&#45;&gt;control -->
<g id="edge18" class="edge">
<title>113&#45;&gt;control</title>
<path fill="none" stroke="green" stroke-width="0.65" d="M249.7,-95.92C247.33,-87.87 244.51,-78.28 241.76,-68.96"/>
<polygon fill="green" stroke="green" stroke-width="0.65" points="245.19,-68.19 239.01,-59.59 238.47,-70.17 245.19,-68.19"/>
</g>
<!-- 273&#45;&gt;control -->
<g id="edge23" class="edge">
<title>273&#45;&gt;control</title>
<path fill="none" stroke="red" stroke-width="0.35" d="M61.01,-106.84C92.23,-92.82 153.9,-65.11 193.62,-47.27"/>
<polygon fill="red" stroke="red" stroke-width="0.35" points="195.04,-50.47 202.73,-43.18 192.17,-44.08 195.04,-50.47"/>
</g>
<!-- 185&#45;&gt;113 -->
<g id="edge27" class="edge">
<title>185&#45;&gt;113</title>
<path fill="none" stroke="red" stroke-width="0.11" d="M178.7,-180.72C193.28,-168.74 214.9,-150.98 231.49,-137.34"/>
<polygon fill="red" stroke="red" stroke-width="0.11" points="233.54,-140.18 239.05,-131.13 229.1,-134.78 233.54,-140.18"/>
</g>
</g>
</svg>
